<svg width="239" height="234" viewBox="0 0 239 234" fill="none" xmlns="http://www.w3.org/2000/svg">
<path d="M196.055 106.096C154.835 118.098 139.955 89.4576 139.955 89.4576C123.455 126.89 85.64 131.465 72.65 131.99C70.31 147.488 52.88 151.764 52.88 151.764C52.88 151.764 36.455 137.977 35.96 157.6C35.465 176.849 55.46 174.493 56.15 174.403C57.5971 179.284 59.5162 184.012 61.88 188.521C61.88 188.521 11.615 201.003 3.71003 147.053C3.71003 147.053 -1.73498 111.047 25.925 110.686C25.925 110.686 10.925 76.7802 35.945 48.605C35.945 48.605 50.15 30.8117 74.36 33.2871C74.36 33.2871 99.23 -3.78473 132.5 4.12173C150.215 8.32251 159.605 16.7541 164.54 23.7154C164.54 23.7154 223.67 14.7137 220.745 82.4062C221.63 82.6013 249.14 88.6624 229.835 133.971L228.77 134.181V133.971C224.57 114.797 211.04 131.45 211.04 131.45C196.355 132.621 196.055 106.096 196.055 106.096Z" fill="#B17F49"/>
<path d="M56.135 174.448C55.37 174.538 35.45 176.894 35.945 157.645C36.44 138.022 52.8649 151.809 52.8649 151.809C52.8649 151.809 70.295 147.533 72.635 132.035C85.625 131.57 123.515 126.935 139.94 89.5026C139.94 89.5026 154.82 118.173 196.04 106.141C196.04 106.141 196.34 132.621 211.04 131.51C211.04 131.51 224.54 114.857 228.77 134.031V134.241C232.775 153.234 212.06 154.36 212.06 154.36C211.499 171.96 205.122 188.878 193.926 202.467C182.729 216.057 167.345 225.551 150.18 229.466C133.015 233.38 115.036 231.494 99.0566 224.102C83.0772 216.71 69.998 204.229 61.8649 188.611C59.5011 184.102 57.5821 179.374 56.135 174.493V174.448ZM172.01 150.279C172.007 149.341 171.726 148.425 171.203 147.647C170.679 146.87 169.937 146.264 169.07 145.908C168.203 145.552 167.249 145.461 166.331 145.647C165.412 145.833 164.568 146.287 163.908 146.952C163.247 147.617 162.798 148.463 162.618 149.384C162.438 150.304 162.535 151.257 162.897 152.122C163.258 152.987 163.868 153.726 164.649 154.244C165.43 154.763 166.348 155.038 167.285 155.035C167.907 155.033 168.523 154.908 169.098 154.668C169.672 154.428 170.193 154.077 170.632 153.636C171.071 153.194 171.419 152.67 171.655 152.094C171.891 151.518 172.012 150.901 172.01 150.279ZM115.25 154.36C115.247 153.423 114.966 152.507 114.444 151.73C113.921 150.952 113.18 150.347 112.314 149.99C111.447 149.634 110.495 149.542 109.576 149.727C108.658 149.911 107.814 150.364 107.153 151.028C106.492 151.691 106.042 152.536 105.86 153.455C105.678 154.374 105.773 155.327 106.132 156.192C106.491 157.058 107.099 157.797 107.878 158.318C108.657 158.838 109.573 159.115 110.51 159.115C111.769 159.111 112.974 158.609 113.863 157.717C114.751 156.826 115.25 155.618 115.25 154.36Z" fill="#E2C39A"/>
<path d="M167.285 145.538C168.226 145.538 169.146 145.817 169.928 146.341C170.711 146.864 171.32 147.607 171.679 148.477C172.039 149.347 172.132 150.304 171.948 151.227C171.763 152.15 171.308 152.998 170.642 153.662C169.975 154.327 169.127 154.778 168.203 154.96C167.28 155.142 166.324 155.046 165.455 154.683C164.586 154.321 163.845 153.709 163.324 152.925C162.803 152.141 162.527 151.22 162.53 150.279C162.53 149.655 162.653 149.037 162.892 148.461C163.131 147.885 163.482 147.362 163.924 146.921C164.365 146.481 164.89 146.132 165.467 145.895C166.043 145.657 166.661 145.536 167.285 145.538Z" fill="#575756"/>
<path d="M110.51 149.604C111.451 149.601 112.372 149.877 113.156 150.398C113.94 150.919 114.551 151.66 114.914 152.529C115.276 153.398 115.372 154.355 115.19 155.278C115.009 156.202 114.557 157.051 113.893 157.717C113.228 158.384 112.381 158.838 111.458 159.023C110.535 159.208 109.578 159.114 108.709 158.755C107.839 158.395 107.096 157.786 106.572 157.003C106.049 156.221 105.77 155.301 105.77 154.36C105.77 153.101 106.269 151.893 107.157 151.002C108.046 150.111 109.251 149.608 110.51 149.604Z" fill="#575756"/>
<path d="M132.5 233.694C114.852 233.674 97.6818 227.963 83.5363 217.409C69.3907 206.856 59.0241 192.021 53.9751 175.108C53.8913 174.825 53.8643 174.527 53.8955 174.233C53.9267 173.939 54.0155 173.654 54.1569 173.394C54.2983 173.134 54.4895 172.905 54.7195 172.719C54.9495 172.533 55.2138 172.394 55.4975 172.31C55.7811 172.227 56.0785 172.2 56.3726 172.231C56.6667 172.262 56.9519 172.351 57.2116 172.492C57.4714 172.634 57.7008 172.825 57.8867 173.055C58.0725 173.285 58.2114 173.549 58.2951 173.833C59.6963 178.575 61.5602 183.168 63.86 187.546C71.7534 202.731 84.4582 214.87 99.9856 222.063C115.513 229.255 132.987 231.095 149.671 227.294C166.356 223.494 181.31 214.267 192.192 201.059C203.074 187.851 209.27 171.406 209.81 154.3C209.83 153.703 210.086 153.138 210.522 152.73C210.958 152.322 211.538 152.104 212.135 152.124C212.732 152.144 213.296 152.4 213.704 152.836C214.112 153.272 214.33 153.853 214.31 154.45C213.621 175.694 204.701 195.839 189.435 210.627C174.168 225.414 153.752 233.686 132.5 233.694Z" fill="#575756"/>
<path d="M53.51 176.834C49.835 176.834 43.5799 176.144 39.0199 172.018C35.3299 168.672 33.53 163.811 33.695 157.585C33.86 151.359 35.7049 147.083 39.1999 145.583C44.3299 143.258 50.8249 147.488 53.3449 149.364C56.8849 148.193 68.6299 143.483 70.4149 131.735C70.5044 131.139 70.8274 130.602 71.3126 130.243C71.7979 129.884 72.4058 129.733 73.0025 129.823C73.5992 129.912 74.136 130.235 74.4946 130.72C74.8533 131.206 75.0044 131.814 74.9149 132.411C72.3649 149.214 54.2149 153.849 53.4499 154.045C53.1066 154.128 52.7484 154.129 52.4044 154.049C52.0604 153.968 51.7403 153.807 51.4699 153.579C49.7299 152.079 44.105 148.313 41.09 149.679C39.365 150.459 38.3449 153.324 38.2399 157.75C38.1049 162.611 39.4099 166.302 42.0799 168.732C47.1199 173.233 55.5799 172.303 55.8949 172.258C56.2125 172.22 56.5344 172.249 56.8399 172.344C57.1453 172.439 57.4275 172.597 57.668 172.807C57.9084 173.018 58.1019 173.277 58.2358 173.568C58.3696 173.858 58.4409 174.174 58.445 174.493C58.443 175.058 58.2292 175.601 57.8458 176.015C57.4624 176.429 56.9374 176.684 56.375 176.729C55.4227 176.818 54.4662 176.853 53.51 176.834Z" fill="#575756"/>
<path d="M49.6699 192.107C41.7199 192.107 31.2499 190.606 21.9199 184.335C10.8499 176.834 3.9199 164.486 1.4599 147.443C1.3399 146.633 -1.43516 127.4 8.05984 116.208C12.3198 111.182 18.3198 108.601 25.8798 108.496C29.4164 108.485 32.9415 108.899 36.3798 109.726C36.6838 109.775 36.9747 109.885 37.2345 110.05C37.4942 110.215 37.7173 110.432 37.89 110.686C38.0627 110.941 38.1812 111.229 38.2384 111.531C38.2955 111.834 38.2899 112.145 38.2221 112.445C38.1542 112.745 38.0255 113.029 37.8439 113.277C37.6622 113.526 37.4316 113.734 37.1661 113.89C36.9006 114.046 36.606 114.145 36.3005 114.183C35.995 114.22 35.6851 114.194 35.3899 114.107C32.2791 113.367 29.0924 112.995 25.8949 112.997C19.6999 112.997 14.8399 115.127 11.4649 119.103C3.27487 128.735 5.8399 146.603 5.8699 146.768C8.1799 162.521 14.4049 173.893 24.3949 180.599C40.4749 191.386 61.0699 186.451 61.2799 186.406C61.5708 186.321 61.8757 186.297 62.1763 186.334C62.4769 186.37 62.7669 186.467 63.0292 186.618C63.2915 186.77 63.5205 186.973 63.7026 187.215C63.8846 187.457 64.0159 187.733 64.0886 188.027C64.1614 188.321 64.174 188.627 64.1258 188.926C64.0776 189.225 63.9695 189.511 63.8081 189.767C63.6467 190.023 63.4353 190.244 63.1864 190.417C62.9375 190.589 62.6564 190.71 62.3599 190.771C58.1924 191.685 53.9363 192.133 49.6699 192.107Z" fill="#575756"/>
<path d="M25.9099 112.997C25.475 112.997 25.0495 112.871 24.6848 112.634C24.3201 112.397 24.0318 112.059 23.8549 111.662C23.7049 111.302 8.50994 76.0901 34.2499 47.1497C34.7749 46.4896 48.9199 29.1464 73.2499 30.9617C77.9362 24.6401 83.4105 18.943 89.5399 14.0086C103.67 2.72647 118.7 -1.4293 133.04 2.00634C151.79 6.50717 161.54 15.5988 166.4 22.4851C169.074 26.0522 170.97 30.1411 171.965 34.4874C172.037 34.7866 172.047 35.0974 171.993 35.4006C171.94 35.7037 171.826 35.9927 171.657 36.2498C171.488 36.5069 171.268 36.7266 171.01 36.8953C170.753 37.0639 170.464 37.178 170.16 37.2304C169.857 37.2828 169.547 37.2725 169.247 37.2001C168.948 37.1276 168.667 36.9946 168.422 36.8092C168.176 36.6238 167.971 36.39 167.82 36.1223C167.668 35.8545 167.573 35.5585 167.54 35.2525C166.624 31.5885 164.992 28.1418 162.74 25.1106C158.24 18.8545 149.375 10.5279 132.005 6.40214C118.91 3.29657 105.59 7.0623 92.39 17.5943C86.2619 22.512 80.8364 28.2464 76.265 34.6374C76.0357 34.9754 75.7198 35.2457 75.3503 35.4199C74.9809 35.594 74.5715 35.6658 74.1649 35.6276C51.5149 33.3021 37.8649 49.9402 37.7299 50.1053C13.88 76.9152 27.875 109.531 28.01 109.861C28.1625 110.204 28.2269 110.579 28.1975 110.953C28.1681 111.327 28.0457 111.687 27.8415 112.002C27.6373 112.317 27.3578 112.575 27.0284 112.754C26.6989 112.933 26.3298 113.027 25.9549 113.027L25.9099 112.997Z" fill="#575756"/>
<path d="M219.11 100.335H218.765C218.473 100.291 218.192 100.189 217.939 100.036C217.687 99.8833 217.467 99.6817 217.292 99.4431C217.118 99.2045 216.993 98.9337 216.924 98.6464C216.854 98.3591 216.843 98.0609 216.89 97.7691C217.695 92.675 218.231 87.5419 218.495 82.3913C219.395 61.6874 214.46 46.3846 203.84 36.7978C188.18 22.7102 165.11 25.9958 164.84 26.0258C164.243 26.1153 163.635 25.9641 163.15 25.6054C162.665 25.2466 162.342 24.7098 162.252 24.113C162.163 23.5161 162.314 22.9081 162.673 22.4228C163.031 21.9374 163.568 21.6145 164.165 21.525C165.2 21.3749 189.53 17.8793 206.78 33.3772C218.48 43.8791 223.91 60.3821 222.965 82.5413C222.689 87.8578 222.134 93.1562 221.3 98.4142C221.225 98.9433 220.962 99.4279 220.561 99.7802C220.159 100.132 219.644 100.329 219.11 100.335Z" fill="#575756"/>
<path d="M229.835 136.281C229.531 136.278 229.231 136.217 228.95 136.101C228.674 135.984 228.424 135.812 228.214 135.598C228.005 135.383 227.84 135.128 227.73 134.849C227.62 134.57 227.566 134.271 227.572 133.971C227.578 133.671 227.644 133.375 227.765 133.101C234.935 116.268 236.345 102.75 231.83 94.0034C230.678 91.7142 229.055 89.695 227.067 88.0787C225.079 86.4625 222.771 85.286 220.295 84.6267C219.698 84.569 219.149 84.2766 218.768 83.8137C218.386 83.3509 218.205 82.7556 218.262 82.1587C218.32 81.5619 218.612 81.0124 219.075 80.6311C219.538 80.2499 220.133 80.0682 220.73 80.1259H221.21C224.332 80.9376 227.246 82.4015 229.762 84.421C232.278 86.4406 234.337 88.9701 235.805 91.843C241.04 101.97 239.72 116.418 231.89 134.781C231.739 135.209 231.462 135.582 231.095 135.85C230.728 136.117 230.289 136.268 229.835 136.281Z" fill="#575756"/>
<path d="M70.2349 134.331C68.8699 134.331 68.09 134.331 68.045 134.331C67.4483 134.295 66.8902 134.024 66.4936 133.576C66.0969 133.129 65.8941 132.542 65.93 131.945C65.9658 131.349 66.2372 130.79 66.6844 130.394C67.1317 129.997 67.7183 129.794 68.315 129.83C68.315 129.83 69.9049 129.92 72.5599 129.83C86.9899 129.305 122.24 124.264 137.87 88.6324C138.815 86.502 139.7 84.2066 140.51 81.7911C140.608 81.5114 140.761 81.2537 140.959 81.033C141.157 80.8122 141.397 80.6326 141.664 80.5044C141.932 80.3763 142.222 80.302 142.518 80.286C142.814 80.2699 143.11 80.3124 143.39 80.4109C143.67 80.5094 143.927 80.6621 144.148 80.8601C144.369 81.0582 144.548 81.2978 144.676 81.5653C144.805 81.8328 144.879 82.1229 144.895 82.4191C144.911 82.7152 144.868 83.0116 144.77 83.2914C143.93 85.8419 142.985 88.2723 141.995 90.5228C124.88 129.53 84.65 134.031 72.725 134.406L70.2349 134.331Z" fill="#575756"/>
<path d="M177.005 111.317C167.944 111.482 159.029 109.017 151.34 104.22C145.832 100.817 141.239 96.1203 137.96 90.5377C137.825 90.2779 137.743 89.9939 137.718 89.7021C137.693 89.4104 137.726 89.1166 137.816 88.8377C137.905 88.5588 138.048 88.3003 138.238 88.0771C138.427 87.8539 138.659 87.6704 138.92 87.5372C139.444 87.2716 140.052 87.2217 140.612 87.3984C141.173 87.575 141.642 87.9641 141.92 88.4824C142.505 89.5926 156.545 115.337 195.395 104.01C196.46 103.71 197.54 103.365 198.635 103.005C198.916 102.912 199.212 102.876 199.507 102.898C199.801 102.92 200.089 103 200.353 103.133C200.617 103.266 200.852 103.449 201.045 103.673C201.238 103.897 201.385 104.157 201.477 104.438C201.57 104.719 201.606 105.015 201.584 105.31C201.563 105.604 201.483 105.892 201.35 106.156C201.217 106.42 201.033 106.655 200.809 106.848C200.585 107.041 200.326 107.188 200.045 107.281C198.89 107.656 197.75 108.016 196.64 108.331C190.269 110.252 183.658 111.257 177.005 111.317Z" fill="#575756"/>
<path d="M212 156.61C211.704 156.618 211.41 156.568 211.134 156.462C210.858 156.356 210.606 156.197 210.391 155.993C210.177 155.79 210.005 155.546 209.884 155.276C209.764 155.006 209.698 154.715 209.69 154.42C209.682 154.124 209.732 153.83 209.838 153.554C209.944 153.278 210.103 153.025 210.306 152.811C210.51 152.596 210.753 152.424 211.023 152.303C211.293 152.183 211.584 152.117 211.88 152.109C211.88 152.109 220.55 151.539 224.705 146.108C226.895 143.243 227.495 139.402 226.52 134.706L228.665 134.031L226.475 134.511C225.515 130.19 223.985 127.565 222.14 127.13C219.14 126.409 214.475 130.73 212.69 132.921C212.318 133.383 211.779 133.679 211.19 133.746C209.494 133.905 207.783 133.701 206.172 133.147C204.56 132.594 203.085 131.703 201.845 130.535C194.105 123.454 193.82 106.861 193.82 106.156C193.82 105.559 194.057 104.986 194.479 104.564C194.901 104.142 195.473 103.905 196.07 103.905C196.667 103.905 197.239 104.142 197.661 104.564C198.083 104.986 198.32 105.559 198.32 106.156C198.32 106.306 198.59 121.504 204.89 127.265C206.259 128.569 208.069 129.309 209.96 129.335C211.955 127.085 217.67 121.459 223.25 122.794C226.97 123.679 229.565 127.295 230.945 133.596L228.785 134.271L230.975 133.746C232.265 139.882 231.365 144.953 228.335 148.914C222.905 155.995 212.63 156.625 212.195 156.655L212 156.61Z" fill="#575756"/>
<path d="M99.155 146.138C98.8567 146.142 98.5607 146.086 98.2848 145.973C98.0089 145.859 97.759 145.691 97.55 145.478C97.1332 145.057 96.8994 144.488 96.8994 143.895C96.8994 143.302 97.1332 142.734 97.55 142.312C99.616 140.511 102.082 139.23 104.744 138.575C107.405 137.92 110.184 137.91 112.85 138.547C113.14 138.606 113.415 138.721 113.66 138.887C113.904 139.052 114.114 139.264 114.277 139.511C114.44 139.757 114.553 140.034 114.609 140.324C114.666 140.614 114.664 140.913 114.605 141.202C114.546 141.492 114.43 141.767 114.265 142.012C114.1 142.257 113.887 142.467 113.641 142.63C113.394 142.793 113.118 142.906 112.828 142.962C112.538 143.018 112.24 143.017 111.95 142.957C110.011 142.47 107.984 142.446 106.035 142.89C104.085 143.333 102.268 144.23 100.73 145.508C100.306 145.914 99.7418 146.14 99.155 146.138Z" fill="#575756"/>
<path d="M176.87 140.602C176.278 140.599 175.712 140.362 175.295 139.942C173.75 138.672 171.929 137.78 169.979 137.337C168.029 136.895 166.002 136.913 164.06 137.391C163.77 137.451 163.472 137.452 163.182 137.396C162.892 137.34 162.615 137.227 162.369 137.064C162.122 136.901 161.91 136.691 161.745 136.446C161.58 136.201 161.464 135.926 161.405 135.636C161.346 135.347 161.344 135.048 161.401 134.758C161.457 134.468 161.57 134.191 161.733 133.945C161.896 133.698 162.105 133.486 162.35 133.321C162.595 133.155 162.87 133.04 163.16 132.981C165.829 132.344 168.612 132.354 171.276 133.012C173.94 133.67 176.409 134.955 178.475 136.761C178.783 137.08 178.991 137.481 179.073 137.917C179.155 138.352 179.108 138.802 178.937 139.21C178.766 139.619 178.479 139.969 178.112 140.216C177.745 140.463 177.313 140.598 176.87 140.602Z" fill="#575756"/>
<path d="M132.5 164.066C131.954 164.087 131.42 163.905 131 163.556C130.771 163.371 130.581 163.143 130.44 162.885C130.299 162.626 130.211 162.342 130.181 162.05C130.15 161.757 130.177 161.461 130.261 161.179C130.345 160.897 130.484 160.634 130.67 160.406C132.949 157.661 136.147 155.837 139.67 155.275C141.209 155.161 142.754 155.369 144.208 155.886C145.662 156.403 146.993 157.216 148.115 158.275C148.57 158.661 148.854 159.212 148.903 159.807C148.952 160.403 148.763 160.993 148.377 161.448C147.992 161.904 147.44 162.188 146.846 162.237C146.251 162.286 145.66 162.097 145.205 161.711C144.535 161.059 143.737 160.553 142.862 160.226C141.987 159.898 141.053 159.755 140.12 159.806C137.781 160.244 135.663 161.473 134.12 163.286C133.919 163.521 133.671 163.712 133.392 163.846C133.113 163.981 132.809 164.056 132.5 164.066Z" fill="#575756"/>
<path d="M136.265 187.111C127.831 186.89 119.63 184.29 112.61 179.609C112.348 179.446 112.122 179.23 111.947 178.975C111.771 178.721 111.65 178.433 111.591 178.13C111.532 177.826 111.536 177.514 111.603 177.212C111.67 176.91 111.798 176.626 111.98 176.376C112.162 176.126 112.393 175.916 112.66 175.759C112.926 175.603 113.222 175.503 113.529 175.465C113.835 175.428 114.147 175.454 114.443 175.543C114.739 175.631 115.014 175.779 115.25 175.979C116.24 176.684 139.25 192.902 159.2 172.048C159.401 171.831 159.642 171.656 159.911 171.533C160.179 171.409 160.47 171.34 160.765 171.329C161.06 171.318 161.355 171.365 161.632 171.468C161.909 171.571 162.163 171.727 162.38 171.928C162.597 172.129 162.772 172.37 162.895 172.639C163.018 172.908 163.087 173.198 163.098 173.493C163.11 173.789 163.062 174.083 162.96 174.36C162.857 174.638 162.701 174.892 162.5 175.108C153.74 184.23 144.5 187.111 136.265 187.111Z" fill="#575756"/>
<path d="M50.1949 168.342C48.7113 168.354 47.2478 167.998 45.9348 167.307C44.5413 166.452 43.3298 165.332 42.3698 164.008C41.4097 162.685 40.7199 161.186 40.3399 159.596C40.2086 159.013 40.3142 158.401 40.6335 157.896C40.9528 157.391 41.4596 157.034 42.0424 156.903C42.6252 156.771 43.2363 156.877 43.7412 157.196C44.2462 157.516 44.6036 158.022 44.7348 158.605C45.2062 160.542 46.3899 162.229 48.0499 163.331C48.9122 163.689 49.8421 163.854 50.7747 163.815C51.7073 163.776 52.6202 163.534 53.4498 163.106C53.9965 162.913 54.5966 162.939 55.1249 163.177C55.6532 163.416 56.069 163.85 56.2856 164.387C56.5022 164.925 56.503 165.526 56.2877 166.064C56.0724 166.603 55.6576 167.037 55.1298 167.277C53.5687 167.946 51.8931 168.308 50.1949 168.342Z" fill="#575756"/>
<path d="M212.675 148.779C212.136 148.772 211.617 148.571 211.213 148.214C210.81 147.857 210.548 147.366 210.475 146.832C210.402 146.297 210.524 145.755 210.817 145.303C211.111 144.85 211.557 144.519 212.075 144.368C219.35 142.342 218.78 137.541 218.705 137.001C218.596 136.414 218.724 135.808 219.061 135.316C219.399 134.823 219.918 134.485 220.505 134.376C221.092 134.266 221.698 134.395 222.19 134.732C222.683 135.07 223.021 135.589 223.13 136.176C223.73 139.387 222.47 146.138 213.275 148.704C213.078 148.751 212.877 148.776 212.675 148.779Z" fill="#575756"/>
</svg>
