<svg width="231" height="202" viewBox="0 0 231 202" fill="none" xmlns="http://www.w3.org/2000/svg">
<path d="M228.5 94.9081C228.5 94.9081 232.67 120.923 207.41 124.569C208.812 118.01 209.521 111.322 209.525 104.615C209.543 97.5773 208.758 90.5606 207.185 83.701C209.825 81.5406 225.5 69.7784 228.5 94.9081Z" fill="#F7EDE1"/>
<path d="M126.38 138.311C128.022 133.927 128.657 129.231 128.24 124.569C118.385 127.689 95.675 127.884 95.675 127.884C95.7982 132.324 97.0974 136.653 99.4399 140.426C102.155 144.447 106.85 147.688 114.92 146.938C117.468 146.79 119.915 145.892 121.954 144.357C123.993 142.822 125.533 140.719 126.38 138.311ZM207.185 83.7009C208.757 90.5557 209.542 97.5672 209.525 104.6C209.52 111.307 208.812 117.995 207.41 124.553C203.294 143.613 193.393 160.935 179.06 174.152C164.727 187.369 146.663 195.836 127.336 198.394C108.01 200.952 88.3648 197.477 71.0879 188.443C53.8111 179.41 39.7457 165.26 30.8149 147.928C25.7773 138.232 22.487 127.725 21.095 116.887C21.095 116.887 49.01 104.495 55.715 62.472L57.3499 52.3001L57.9049 52.6452C62.7799 55.6457 67.1 59.4865 72.005 62.472C82.505 68.7882 101.075 79.0651 124.22 74.2342C124.22 74.2342 144.845 69.7334 134.945 42.9234C134.945 42.9234 170.18 80.5204 206.81 83.986L207.185 83.7009ZM141.305 106.7C141.231 105.26 140.606 103.904 139.561 102.911C138.516 101.918 137.129 101.365 135.687 101.365C134.246 101.365 132.859 101.918 131.814 102.911C130.769 103.904 130.144 105.26 130.07 106.7C130.031 107.462 130.147 108.225 130.411 108.941C130.676 109.657 131.083 110.311 131.609 110.865C132.134 111.418 132.767 111.859 133.468 112.16C134.169 112.461 134.924 112.617 135.687 112.617C136.451 112.617 137.206 112.461 137.907 112.16C138.608 111.859 139.241 111.418 139.766 110.865C140.292 110.311 140.699 109.657 140.964 108.941C141.228 108.225 141.344 107.462 141.305 106.7ZM94.5649 109.791C94.5649 108.678 94.235 107.59 93.617 106.665C92.9989 105.74 92.1204 105.019 91.0925 104.593C90.0647 104.167 88.9337 104.056 87.8426 104.273C86.7514 104.49 85.7491 105.026 84.9625 105.813C84.1758 106.599 83.6401 107.602 83.423 108.693C83.206 109.785 83.3174 110.916 83.7431 111.944C84.1689 112.972 84.8899 113.85 85.8149 114.469C86.7399 115.087 87.8274 115.417 88.9399 115.417C90.4306 115.413 91.859 114.819 92.9131 113.765C93.9671 112.71 94.561 111.282 94.5649 109.791Z" fill="#F8EFD7"/>
<path d="M207.185 83.701L206.81 84.001C170.18 80.5353 134.945 42.9384 134.945 42.9384C144.845 69.7033 124.22 74.2492 124.22 74.2492C101.075 79.0801 82.5499 68.8032 72.0049 62.487C67.0999 59.4864 62.7799 55.7058 57.9049 52.6602L57.3499 52.3151L55.7149 62.487C49.0099 104.495 21.0949 116.902 21.0949 116.902C20.7199 114.292 20.5099 111.651 20.3899 108.981C20.3149 107.48 20.2849 106.07 20.2849 104.615C20.2856 81.3378 28.8632 58.8775 44.3779 41.5275C59.8927 24.1775 81.2563 13.1549 104.385 10.5669C127.513 7.97885 150.784 14.0069 169.749 27.4987C188.713 40.9905 202.041 60.9996 207.185 83.701Z" fill="#F7AE5A"/>
<path d="M135.695 112.326C138.802 112.326 141.32 109.807 141.32 106.7C141.32 103.593 138.802 101.074 135.695 101.074C132.588 101.074 130.07 103.593 130.07 106.7C130.07 109.807 132.588 112.326 135.695 112.326Z" fill="#575756"/>
<path d="M128.24 124.569C128.657 129.231 128.022 133.928 126.38 138.311C109.49 131.425 99.38 140.426 99.38 140.426C97.0375 136.653 95.7382 132.324 95.615 127.884C95.615 127.884 118.385 127.689 128.24 124.569Z" fill="#575756"/>
<path d="M126.38 138.311C125.533 140.719 123.993 142.822 121.954 144.357C119.915 145.892 117.468 146.79 114.92 146.938C106.85 147.688 102.155 144.447 99.4399 140.426C99.4999 140.426 109.49 131.425 126.38 138.311Z" fill="#F1B0C1"/>
<path d="M88.9399 115.417C92.0465 115.417 94.5649 112.898 94.5649 109.791C94.5649 106.684 92.0465 104.165 88.9399 104.165C85.8333 104.165 83.3149 106.684 83.3149 109.791C83.3149 112.898 85.8333 115.417 88.9399 115.417Z" fill="#575756"/>
<path d="M62.3301 3.52609C77.1052 6.42163 68.4802 22.1295 68.4802 22.1295C61.2954 26.17 54.6736 31.1385 48.7852 36.9073C48.7852 36.9073 31.2201 30.4261 38.4051 20.2692C38.4051 20.2692 42.6501 13.833 49.5651 20.2692C49.5651 20.2692 47.5551 0.585543 62.3301 3.52609Z" fill="#F7AE5A"/>
<path d="M30.8149 147.943C8.31485 149.953 3.34986 126.234 3.34986 126.234C-2.48514 99.2289 20.3299 108.936 20.3299 108.936H20.4349C20.5549 111.606 20.7649 114.247 21.1399 116.857C22.5126 127.707 25.7878 138.23 30.8149 147.943Z" fill="#F7EDE1"/>
<path d="M114.92 201.488C97.1185 201.539 79.6503 196.661 64.4507 187.392C49.2511 178.124 36.9135 164.828 28.8049 148.978C23.6481 139.048 20.2816 128.286 18.8599 117.187C18.4999 114.637 18.2599 111.966 18.1399 109.071C18.0649 107.57 18.0349 106.07 18.0349 104.57C18.0326 86.2762 23.2084 68.3557 32.9636 52.8814C42.7188 37.407 56.6548 25.0111 73.1595 17.1276C89.6642 9.24414 108.063 6.19521 126.228 8.33354C144.393 10.4719 161.581 17.7101 175.805 29.2108C192.733 42.9401 204.556 61.962 209.375 83.2208C210.983 90.2483 211.788 97.4356 211.775 104.645C211.777 117.367 209.273 129.965 204.406 141.719C199.54 153.473 192.405 164.153 183.411 173.149C174.417 182.145 163.739 189.28 151.987 194.148C140.235 199.015 127.64 201.52 114.92 201.518V201.488ZM114.92 12.2127C99.0361 12.2179 83.4208 16.3097 69.5749 24.0949C55.3049 32.1408 43.4291 43.8353 35.1636 57.9811C26.8981 72.1268 22.5398 88.2155 22.5349 104.6C22.5349 106.01 22.5349 107.435 22.6399 108.846C22.7599 111.621 22.9849 114.142 23.3299 116.572C24.6699 127.161 27.8798 137.427 32.8099 146.893C42.2821 165.323 57.6762 180.032 76.5168 188.653C95.3574 197.275 116.55 199.309 136.686 194.428C156.822 189.546 174.731 178.034 187.534 161.741C200.338 145.448 207.29 125.323 207.275 104.6C207.291 97.7341 206.526 90.8888 204.995 84.196C200.382 63.7635 188.961 45.5065 172.607 32.421C156.253 19.3355 135.938 12.199 114.995 12.1827L114.92 12.2127Z" fill="#575756"/>
<path d="M207.395 126.819C206.798 126.861 206.209 126.664 205.758 126.271C205.306 125.879 205.029 125.323 204.988 124.726C204.946 124.129 205.143 123.54 205.535 123.089C205.928 122.637 206.483 122.36 207.08 122.318C213.77 121.343 218.81 118.612 222.08 114.187C227.93 106.265 226.295 95.3281 226.28 95.2231C225.38 87.6317 223.28 82.9808 220.04 81.7206C215.66 79.9502 209.75 84.5111 208.61 85.4413L208.16 85.8013C207.729 86.122 207.196 86.2765 206.66 86.2364C187.235 84.4061 168.32 73.124 155.87 63.9873C150.118 59.7709 144.61 55.2328 139.37 50.3947C140.495 56.7409 139.835 62.2019 137.375 66.7178C136.021 69.0988 134.205 71.1852 132.033 72.8547C129.862 74.5241 127.379 75.743 124.73 76.4396C99.62 81.6906 79.475 69.5833 70.865 64.4374C68.21 62.8321 65.735 61.0017 63.365 59.2164C61.955 58.1812 60.53 57.116 59.06 56.1108L57.98 62.8771C51.17 105.605 23.24 118.462 21.98 118.987C21.7089 119.114 21.4151 119.185 21.116 119.197C20.8168 119.208 20.5185 119.159 20.2387 119.052C19.9589 118.946 19.7033 118.785 19.4871 118.578C19.2709 118.371 19.0985 118.122 18.98 117.847C18.8573 117.575 18.7894 117.282 18.7804 116.984C18.7713 116.686 18.8211 116.389 18.927 116.11C19.0329 115.831 19.1928 115.576 19.3976 115.359C19.6023 115.143 19.8478 114.968 20.12 114.847C20.39 114.727 47.015 102.334 53.435 62.1269L55.07 51.9551C55.1353 51.5969 55.2869 51.26 55.5119 50.9738C55.737 50.6876 56.0285 50.4607 56.3611 50.3128C56.6938 50.165 57.0575 50.1006 57.4207 50.1254C57.7839 50.1501 58.1355 50.2632 58.445 50.4548L59 50.7848C61.445 52.2851 63.725 53.9954 65.93 55.6307C68.135 57.266 70.64 59.1264 73.115 60.6116C86.615 68.7131 103.115 76.4096 123.71 72.1038C127.787 70.9565 131.258 68.2658 133.385 64.6024C136.175 59.4414 135.965 52.4501 132.77 43.8235C132.588 43.3363 132.581 42.8011 132.749 42.3089C132.917 41.8168 133.25 41.3981 133.692 41.124C134.134 40.8499 134.658 40.7375 135.173 40.8057C135.689 40.8739 136.164 41.1186 136.52 41.4981C136.865 41.8732 171.02 77.8949 206.06 81.7656C208.565 79.8002 215.45 75.1494 221.66 77.6548C226.535 79.6202 229.565 85.3662 230.66 94.743C230.66 95.178 232.61 107.495 225.65 116.962C221.645 122.408 215.585 125.754 207.65 126.909L207.395 126.819Z" fill="#575756"/>
<path d="M28.1001 150.358C6.33505 150.358 1.10006 126.999 1.10006 126.744C-0.924945 117.412 0.12505 110.946 4.23505 107.54C10.4001 102.439 20.7351 106.715 21.1401 106.895C21.4129 107.011 21.6603 107.178 21.8683 107.389C22.0762 107.6 22.2406 107.85 22.3521 108.124C22.4635 108.399 22.5198 108.693 22.5177 108.989C22.5157 109.285 22.4553 109.578 22.3401 109.851C22.2248 110.124 22.057 110.371 21.8461 110.579C21.6353 110.787 21.3855 110.952 21.1111 111.063C20.8367 111.175 20.543 111.231 20.2469 111.229C19.9507 111.227 19.6579 111.166 19.3851 111.051C17.1051 110.091 10.3851 108.216 7.10006 111.051C4.43006 113.271 3.87504 118.387 5.49504 125.844C5.69004 126.744 10.3851 147.598 30.5601 145.783C30.8556 145.756 31.1534 145.788 31.4365 145.876C31.7197 145.965 31.9826 146.108 32.2104 146.298C32.4381 146.489 32.6262 146.722 32.7638 146.985C32.9014 147.247 32.986 147.535 33.0125 147.83C33.0391 148.126 33.0073 148.424 32.9188 148.707C32.8303 148.99 32.6869 149.253 32.4967 149.481C32.3066 149.709 32.0735 149.897 31.8107 150.034C31.5479 150.172 31.2605 150.257 30.9651 150.283C29.9851 150.333 29.0301 150.358 28.1001 150.358Z" fill="#575756"/>
<path d="M209.66 110.481H209.33C208.733 110.435 208.179 110.154 207.789 109.7C207.4 109.245 207.207 108.655 207.252 108.058C207.298 107.461 207.579 106.907 208.033 106.517C208.488 106.128 209.078 105.934 209.675 105.98C210.576 105.932 211.424 105.54 212.045 104.885C213.245 103.715 214.685 101.104 214.685 95.2681C214.685 94.6713 214.922 94.0989 215.344 93.6768C215.766 93.2548 216.338 93.0177 216.935 93.0177C217.532 93.0177 218.104 93.2548 218.526 93.6768C218.948 94.0989 219.185 94.6713 219.185 95.2681C219.185 101.359 217.775 105.77 215 108.291C213.553 109.658 211.65 110.438 209.66 110.481Z" fill="#575756"/>
<path d="M23.0001 135.085C21.6615 135.079 20.3443 134.749 19.1601 134.125C15.8151 132.385 13.3251 128.514 11.6601 122.618C11.5049 122.041 11.5853 121.426 11.8835 120.909C12.1816 120.391 12.6732 120.013 13.2501 119.858C13.8269 119.702 14.4418 119.783 14.9594 120.081C15.477 120.379 15.8549 120.871 16.0101 121.448C17.5101 127.104 19.5951 129.264 21.0501 130.075C21.8161 130.547 22.736 130.703 23.6151 130.51C24.1879 130.344 24.8025 130.409 25.3288 130.689C25.8552 130.969 26.2519 131.442 26.4351 132.01C26.6236 132.559 26.5895 133.161 26.3399 133.685C26.0903 134.21 25.6452 134.615 25.1001 134.815C24.4193 135.018 23.7101 135.11 23.0001 135.085Z" fill="#575756"/>
<path d="M105.14 119.153C104.985 119.168 104.83 119.168 104.675 119.153C104.385 119.092 104.11 118.975 103.866 118.807C103.621 118.64 103.412 118.427 103.251 118.179C103.089 117.93 102.978 117.653 102.924 117.362C102.87 117.071 102.873 116.772 102.935 116.482C103.55 113.481 106.31 107.99 112.295 108.14C114.363 108.136 116.365 108.864 117.947 110.196C119.529 111.528 120.587 113.378 120.935 115.417C120.979 115.712 120.965 116.014 120.893 116.304C120.821 116.594 120.692 116.867 120.515 117.107C120.337 117.347 120.114 117.55 119.858 117.704C119.602 117.858 119.318 117.96 119.022 118.005C118.727 118.049 118.426 118.035 118.136 117.963C117.846 117.891 117.573 117.762 117.333 117.584C117.092 117.407 116.889 117.184 116.735 116.927C116.581 116.671 116.479 116.387 116.435 116.092C116.251 115.093 115.713 114.193 114.92 113.559C114.126 112.925 113.13 112.599 112.115 112.641C108.335 112.551 107.285 117.367 107.27 117.412C107.16 117.898 106.89 118.334 106.504 118.649C106.118 118.964 105.638 119.141 105.14 119.153Z" fill="#575756"/>
<path d="M112.67 149.293C109.713 149.428 106.772 148.799 104.129 147.467C101.486 146.134 99.2307 144.144 97.58 141.687C94.9799 137.543 93.5445 132.775 93.425 127.884C93.4289 127.291 93.6652 126.723 94.083 126.302C94.5009 125.882 95.0671 125.642 95.66 125.634C95.885 125.634 118.16 125.409 127.565 122.423C127.882 122.326 128.217 122.299 128.545 122.343C128.874 122.387 129.189 122.501 129.47 122.678C129.749 122.862 129.984 123.105 130.157 123.391C130.331 123.676 130.44 123.996 130.475 124.328C130.943 129.369 130.25 134.45 128.45 139.181C127.449 141.971 125.653 144.406 123.282 146.184C120.912 147.963 118.073 149.007 115.115 149.188C114.275 149.263 113.45 149.293 112.67 149.293ZM98.105 130.105C98.4837 133.306 99.5755 136.382 101.3 139.106C104.165 143.337 108.665 145.197 114.71 144.642C116.852 144.542 118.913 143.796 120.624 142.503C122.334 141.209 123.614 139.429 124.295 137.396C125.535 134.212 126.151 130.82 126.11 127.404C117.38 129.459 103.655 129.97 98.105 130.105Z" fill="#575756"/>
<path d="M99.4999 142.677C99.0436 142.678 98.5978 142.539 98.2218 142.281C97.8458 142.022 97.5572 141.655 97.3945 141.229C97.2318 140.803 97.2025 140.337 97.3106 139.893C97.4188 139.45 97.6592 139.05 97.9999 138.746C98.4499 138.341 109.265 128.919 127.22 136.196C127.749 136.348 128.204 136.689 128.498 137.155C128.793 137.62 128.906 138.177 128.818 138.721C128.729 139.264 128.444 139.756 128.017 140.104C127.59 140.452 127.05 140.63 126.5 140.606C126.197 140.605 125.898 140.549 125.615 140.441C110.33 134.2 101.375 141.822 101 142.152C100.58 142.503 100.047 142.69 99.4999 142.677Z" fill="#575756"/>
<path d="M76.4749 98.5987C76.1619 98.5962 75.8528 98.5297 75.5664 98.4033C75.2801 98.2769 75.0227 98.0932 74.8099 97.8636C74.4116 97.4203 74.2039 96.8378 74.232 96.2425C74.2601 95.6471 74.5216 95.0868 74.9599 94.683C77.1986 92.695 79.7277 91.0608 82.4599 89.8371C82.7341 89.7159 83.0297 89.6507 83.3294 89.6454C83.6291 89.64 83.9269 89.6947 84.2052 89.806C84.4835 89.9174 84.7368 90.0833 84.9501 90.2939C85.1634 90.5045 85.3325 90.7557 85.4474 91.0326C85.5624 91.3095 85.6208 91.6066 85.6194 91.9064C85.6179 92.2062 85.5566 92.5027 85.439 92.7784C85.3214 93.0542 85.1498 93.3037 84.9345 93.5122C84.7191 93.7208 84.4643 93.8842 84.1849 93.9928C81.9149 95.0121 79.8113 96.3676 77.9449 98.0136C77.5426 98.3813 77.0199 98.5894 76.4749 98.5987Z" fill="#575756"/>
<path d="M148.19 97.2935C147.634 97.296 147.098 97.0868 146.69 96.7083C144.824 95.0735 142.726 93.7237 140.465 92.7026C139.927 92.4649 139.504 92.0261 139.285 91.4801C139.067 90.9342 139.071 90.3244 139.296 89.7813C139.522 89.2383 139.951 88.805 140.492 88.5743C141.032 88.3436 141.642 88.3337 142.19 88.5468C144.923 89.7689 147.453 91.4032 149.69 93.3927C150.02 93.6985 150.251 94.0962 150.352 94.5344C150.454 94.9726 150.422 95.4312 150.261 95.8511C150.099 96.271 149.816 96.6328 149.446 96.8899C149.077 97.147 148.64 97.2876 148.19 97.2935Z" fill="#575756"/>
<path d="M48.785 39.1577C48.5192 39.1567 48.2556 39.1111 48.005 39.0227C46.895 38.6026 37.01 34.7919 34.85 27.8156C34.4068 26.3109 34.3308 24.7219 34.6284 23.1817C34.9259 21.6416 35.5883 20.1952 36.56 18.964C37.2719 17.9624 38.1779 17.1143 39.2241 16.4699C40.2703 15.8256 41.4353 15.3983 42.65 15.2133C44.2374 15.0375 45.8424 15.3077 47.285 15.9934C47.525 12.1977 48.5299 6.8867 52.0399 3.69111C54.7399 1.23065 58.3549 0.435509 62.7799 1.30567C67.4299 2.22084 70.595 4.39624 72.17 7.77187C75.245 14.3431 70.67 22.8497 70.445 23.2097C70.3088 23.4789 70.1199 23.718 69.8895 23.9127C69.6591 24.1074 69.3919 24.2537 69.1038 24.3431C68.8157 24.4325 68.5126 24.463 68.2125 24.4328C67.9123 24.4027 67.6214 24.3124 67.3568 24.1676C67.0922 24.0227 66.8595 23.8261 66.6724 23.5894C66.4853 23.3528 66.3477 23.0809 66.2678 22.79C66.1879 22.4991 66.1672 22.1951 66.2071 21.8961C66.247 21.597 66.3466 21.3091 66.5 21.0493C67.535 19.144 69.845 13.3979 68.09 9.66223C67.145 7.65186 65.09 6.36163 61.895 5.73151C58.895 5.1314 56.675 5.55145 55.055 7.02173C51.62 10.1573 51.545 17.5237 51.815 20.0442C51.855 20.4983 51.7572 20.9539 51.5343 21.3516C51.3113 21.7492 50.9735 22.0703 50.5652 22.2728C50.1569 22.4754 49.697 22.5501 49.2455 22.487C48.7941 22.424 48.3722 22.2262 48.035 21.9195C47.4394 21.2235 46.7013 20.6637 45.8705 20.278C45.0398 19.8924 44.1359 19.6898 43.22 19.6841C42.0179 19.885 40.9416 20.5471 40.22 21.5294C39.6503 22.2015 39.2506 23.0009 39.0548 23.86C38.859 24.7191 38.8728 25.6127 39.095 26.4654C40.37 30.6061 47.06 33.8767 49.52 34.7919C50.0184 34.9728 50.4369 35.3239 50.7017 35.7834C50.9665 36.2429 51.0606 36.7811 50.9673 37.3032C50.874 37.8252 50.5995 38.2976 50.192 38.6369C49.7844 38.9762 49.2702 39.1606 48.74 39.1577H48.785Z" fill="#575756"/>
</svg>
