<svg width="220" height="236" viewBox="0 0 220 236" fill="none" xmlns="http://www.w3.org/2000/svg">
<path d="M214.025 128.866C217.145 133.277 217.64 139.188 216.77 144.604C216.386 147.497 215.4 150.277 213.875 152.765C210.155 158.421 200.9 161.767 194.96 158.766L193.46 158.556C194.778 149.491 194.702 140.278 193.235 131.236L193.85 131.401C195.35 129.181 197.72 125.985 200.06 124.695C204.695 122.1 210.92 124.455 214.025 128.866Z" fill="#F8EFD7"/>
<path d="M194.33 146.599C194.287 150.616 193.976 154.626 193.4 158.601C187.295 200.879 151.745 233.27 109.145 233.015C68.7949 232.775 35.3749 203.355 27.5149 164.287C26.274 158.145 25.6857 151.89 25.7599 145.624C25.7599 142.773 25.9549 139.953 26.2399 137.177C26.2399 136.802 26.3149 136.412 26.3749 136.037H26.4799C34.0999 133.757 40.0849 127.426 43.8799 120.254C47.6749 113.083 49.5649 105.026 51.3799 97.0749C52.8706 97.5323 54.4642 97.5323 55.9549 97.0749C75.6499 92.8916 94.0297 83.9729 109.505 71.0901C110.405 76.7011 115.505 80.5569 120.545 82.8223C131.232 87.5679 143.337 88.0085 154.34 84.0525C158 93.4443 162.245 102.686 168.56 110.442C174.875 118.199 183.83 128.656 193.175 131.341C193.991 136.385 194.377 141.49 194.33 146.599ZM133.865 142.893C135.167 142.944 136.454 142.605 137.562 141.919C138.67 141.233 139.547 140.232 140.083 139.044C140.618 137.856 140.786 136.535 140.566 135.251C140.345 133.966 139.746 132.777 138.846 131.835C137.945 130.894 136.784 130.243 135.511 129.966C134.238 129.688 132.911 129.798 131.7 130.28C130.49 130.762 129.451 131.595 128.717 132.671C127.983 133.748 127.587 135.019 127.58 136.322C127.552 138.024 128.196 139.669 129.372 140.899C130.549 142.13 132.163 142.846 133.865 142.893ZM86.9899 143.178C88.2923 143.232 89.581 142.896 90.6907 142.212C91.8004 141.528 92.6805 140.528 93.2179 139.34C93.7554 138.152 93.9258 136.831 93.7072 135.546C93.4886 134.261 92.891 133.07 91.991 132.127C91.0911 131.184 89.93 130.531 88.6566 130.253C87.3832 129.974 86.0556 130.083 84.8443 130.564C83.633 131.046 82.5932 131.878 81.8583 132.955C81.1234 134.032 80.727 135.304 80.7199 136.607C80.696 137.452 80.8396 138.292 81.1425 139.081C81.4454 139.869 81.9016 140.59 82.4846 141.201C83.0677 141.812 83.766 142.301 84.5393 142.641C85.3126 142.98 86.1455 143.163 86.9899 143.178Z" fill="#F8EFD7"/>
<path d="M193.175 131.281C183.83 128.596 174.725 117.959 168.56 110.382C162.395 102.806 158.06 93.3842 154.34 83.9925C143.337 87.9485 131.232 87.5079 120.545 82.7623C115.475 80.4968 110.405 76.6411 109.505 71.0301C94.0502 83.9333 75.686 92.8777 55.9999 97.0899C54.5092 97.5473 52.9156 97.5473 51.4249 97.0899C49.5799 105.041 47.6899 113.083 43.9249 120.269C40.1599 127.456 34.1449 133.772 26.5249 136.052H26.4199C28.091 121.147 33.5751 106.925 42.3429 94.7576C51.1107 82.5902 62.8662 72.8887 76.4749 66.5893C89.5857 60.6435 104.028 58.2458 118.356 59.636C132.684 61.0262 146.396 66.1555 158.12 74.5107C167.424 81.187 175.313 89.6417 181.33 99.386C187.347 109.13 191.373 119.971 193.175 131.281Z" fill="#D29A46"/>
<path d="M125.225 3.48755C150.185 6.75815 167.75 30.2675 164.45 55.9973C163.63 62.5228 161.475 68.8094 158.12 74.4657C146.392 66.1177 132.678 60.9964 118.35 59.6141C104.022 58.2319 89.5818 60.6371 76.4749 66.5892C73.9148 59.4282 73.0922 51.7613 74.0749 44.2201C77.3599 18.4453 100.265 0.216939 125.225 3.48755Z" fill="#D29A46"/>
<path d="M140.27 136.397C140.226 137.644 139.815 138.851 139.089 139.866C138.362 140.88 137.353 141.658 136.187 142.103C135.021 142.547 133.75 142.637 132.533 142.363C131.316 142.088 130.207 141.461 129.344 140.559C128.482 139.657 127.904 138.521 127.684 137.293C127.463 136.064 127.61 134.798 128.105 133.653C128.601 132.507 129.423 131.533 130.468 130.853C131.514 130.172 132.737 129.815 133.985 129.826C135.687 129.873 137.301 130.59 138.478 131.82C139.654 133.05 140.298 134.695 140.27 136.397Z" fill="#575756"/>
<path d="M93.4101 136.682C93.4181 138.395 92.7467 140.04 91.5431 141.258C90.3395 142.476 88.7021 143.167 86.9901 143.178C86.1457 143.163 85.3128 142.98 84.5395 142.641C83.7662 142.301 83.0679 141.812 82.4848 141.201C81.9018 140.59 81.4456 139.869 81.1427 139.081C80.8398 138.292 80.6962 137.452 80.7201 136.607C80.725 135.774 80.894 134.95 81.2174 134.182C81.5408 133.413 82.0124 132.717 82.605 132.131C83.1977 131.545 83.8999 131.082 84.6716 130.767C85.4433 130.453 86.2694 130.294 87.1026 130.299C87.9358 130.303 88.76 130.473 89.5279 130.796C90.2958 131.12 90.9925 131.591 91.5782 132.184C92.1639 132.777 92.6272 133.479 92.9415 134.251C93.2558 135.023 93.415 135.849 93.4101 136.682Z" fill="#575756"/>
<path d="M25.7599 145.624C25.6808 151.889 26.2641 158.145 27.5 164.287C22.055 168.203 12.5 166.343 7.99995 161.287C6.13194 159.068 4.76116 156.474 3.97996 153.68C2.34496 148.474 1.99996 142.563 4.44496 137.687C6.88996 132.812 12.7099 129.541 17.7199 131.341C20.2249 132.256 22.97 135.032 24.815 136.982L26.315 137.117C26 139.953 25.7899 142.773 25.7599 145.624Z" fill="#F8EFD7"/>
<path d="M109.625 235.265H109.13C68.7349 235.025 33.4849 205.365 25.3099 164.752C24.038 158.462 23.4347 152.056 23.5099 145.639C23.5099 142.728 23.7049 139.818 24.0049 136.982C24.0049 136.562 24.0799 136.142 24.1399 135.752C25.879 120.47 31.5159 105.891 40.5097 93.4141C49.5035 80.9376 61.5523 70.9824 75.4999 64.5038C88.981 58.3669 103.838 55.8836 118.582 57.303C133.325 58.7223 147.437 63.9944 159.5 72.5903C169.036 79.4588 177.125 88.141 183.302 98.1399C189.479 108.139 193.624 119.258 195.5 130.861C196.34 136.054 196.736 141.309 196.685 146.569C196.643 150.682 196.322 154.787 195.725 158.856C189.335 202.529 152.42 235.265 109.625 235.265ZM110.45 61.4733C99.0652 61.4593 87.8106 63.8948 77.4499 68.6146C64.1948 74.7648 52.7443 84.2218 44.199 96.0766C35.6536 107.931 30.3008 121.786 28.6549 136.307C28.6549 136.697 28.5649 137.042 28.5199 137.387C28.2349 140.118 28.0849 142.878 28.0549 145.654C27.9877 151.758 28.5609 157.853 29.7649 163.837C37.5199 202.394 70.9249 230.54 109.265 230.765H109.73C150.305 230.765 185.3 199.679 191.27 158.271C191.837 154.4 192.143 150.496 192.185 146.584C192.237 141.56 191.86 136.541 191.06 131.581C189.285 120.567 185.357 110.01 179.499 100.516C173.64 91.0217 165.968 82.7761 156.92 76.251C143.53 66.6728 127.497 61.4882 111.035 61.4132L110.45 61.4733Z" fill="#575756"/>
<path d="M70.5351 126.075C70.0753 126.079 69.6254 125.943 69.2457 125.683C68.8661 125.424 68.575 125.055 68.4116 124.625C68.2482 124.195 68.2203 123.725 68.3318 123.279C68.4433 122.833 68.6887 122.432 69.0351 122.13C72.6176 119.055 76.9249 116.946 81.5498 116.001C86.1746 115.056 90.964 115.306 95.4651 116.729C96.032 116.916 96.5014 117.32 96.77 117.853C97.0387 118.386 97.0845 119.005 96.8976 119.572C96.7106 120.139 96.3061 120.608 95.773 120.877C95.2399 121.145 94.622 121.191 94.0551 121.004C90.2957 119.815 86.2952 119.605 82.4318 120.392C78.5683 121.18 74.9693 122.939 71.9751 125.505C71.5776 125.86 71.0674 126.062 70.5351 126.075Z" fill="#575756"/>
<path d="M147.02 125.43C146.471 125.439 145.937 125.247 145.52 124.89C142.505 122.383 138.901 120.687 135.047 119.962C131.194 119.238 127.22 119.508 123.5 120.749C122.937 120.948 122.318 120.915 121.78 120.658C121.241 120.4 120.827 119.94 120.628 119.376C120.429 118.813 120.462 118.194 120.719 117.656C120.976 117.117 121.437 116.702 122 116.503C126.468 114.997 131.248 114.661 135.883 115.527C140.518 116.394 144.853 118.435 148.475 121.454C148.833 121.754 149.089 122.158 149.208 122.609C149.326 123.061 149.301 123.538 149.136 123.975C148.972 124.412 148.675 124.787 148.288 125.047C147.901 125.308 147.442 125.442 146.975 125.43H147.02Z" fill="#575756"/>
<path d="M102.125 153.41C101.645 153.414 101.176 153.264 100.787 152.982C100.398 152.7 100.11 152.301 99.9639 151.843C99.8181 151.386 99.8225 150.893 99.9765 150.438C100.131 149.983 100.426 149.59 100.82 149.315C103.831 147.234 107.382 146.072 111.04 145.971C114.699 145.87 118.308 146.833 121.43 148.745C121.935 149.063 122.293 149.569 122.426 150.151C122.558 150.734 122.453 151.345 122.135 151.85C121.817 152.355 121.311 152.714 120.728 152.846C120.146 152.978 119.535 152.874 119.03 152.555C116.653 151.131 113.919 150.416 111.149 150.496C108.38 150.576 105.691 151.447 103.4 153.005C103.026 153.266 102.581 153.408 102.125 153.41Z" fill="#575756"/>
<path d="M20.2851 168.608C17.683 168.623 15.1043 168.117 12.7007 167.12C10.2972 166.123 8.11751 164.655 6.29009 162.802C4.19712 160.351 2.6617 157.474 1.79009 154.371C-0.264914 147.829 -0.0549232 141.543 2.39008 136.697C5.18008 131.191 11.9301 126.9 18.4401 129.196C21.2301 130.201 23.9151 132.782 26.4051 135.407C26.6149 135.621 26.7805 135.874 26.8925 136.152C27.0046 136.429 27.0608 136.726 27.058 137.026C27.0552 137.326 26.9935 137.622 26.8763 137.897C26.7591 138.173 26.5888 138.423 26.3751 138.633C26.1614 138.842 25.9084 139.008 25.6307 139.12C25.3529 139.232 25.0558 139.288 24.7564 139.286C24.4569 139.283 24.1609 139.221 23.8853 139.104C23.6097 138.987 23.3599 138.816 23.1501 138.603C21.9351 137.327 19.0851 134.327 16.9101 133.532C12.9351 132.106 8.27009 135.032 6.41009 138.783C3.83009 143.914 5.09009 149.945 6.08009 153.08C6.76214 155.571 7.97488 157.884 9.63508 159.862C13.5651 164.227 21.9201 165.548 26.1351 162.472C26.6204 162.124 27.2242 161.983 27.8135 162.08C28.4028 162.177 28.9295 162.504 29.2776 162.99C29.6257 163.475 29.7667 164.079 29.6697 164.668C29.5726 165.258 29.2454 165.785 28.7601 166.133C26.26 167.817 23.2984 168.682 20.2851 168.608Z" fill="#575756"/>
<path d="M200 162.187C197.921 162.208 195.865 161.741 194 160.822C193.736 160.689 193.501 160.505 193.308 160.281C193.115 160.057 192.968 159.798 192.875 159.517C192.783 159.236 192.746 158.94 192.768 158.645C192.79 158.35 192.87 158.063 193.002 157.799C193.135 157.535 193.319 157.299 193.543 157.106C193.767 156.913 194.026 156.766 194.307 156.674C194.588 156.581 194.884 156.545 195.179 156.566C195.473 156.588 195.761 156.668 196.025 156.801C200.69 159.156 208.76 156.501 212.03 151.52C213.389 149.303 214.263 146.823 214.595 144.244C215.12 140.973 215.51 134.792 212.24 130.156C209.885 126.825 204.86 124.65 201.14 126.705C199.115 127.831 196.64 131.206 195.68 132.707C195.511 132.949 195.295 133.155 195.046 133.314C194.797 133.474 194.519 133.582 194.227 133.633C193.936 133.685 193.638 133.679 193.349 133.615C193.061 133.551 192.787 133.431 192.545 133.262C192.303 133.092 192.096 132.877 191.937 132.627C191.778 132.378 191.67 132.1 191.618 131.809C191.567 131.518 191.573 131.219 191.637 130.93C191.701 130.642 191.821 130.368 191.99 130.126C194.09 127.125 196.385 124.125 198.965 122.745C204.335 119.744 211.94 121.919 215.915 127.531C219.02 131.941 220.13 138.107 219.035 144.919C218.608 148.116 217.503 151.185 215.795 153.92C213.983 156.428 211.612 158.48 208.871 159.915C206.13 161.349 203.093 162.127 200 162.187Z" fill="#575756"/>
<path d="M26.48 138.303C25.9956 138.301 25.5245 138.144 25.1358 137.856C24.747 137.567 24.4611 137.161 24.32 136.697C24.2346 136.416 24.2057 136.12 24.2349 135.827C24.2642 135.534 24.351 135.25 24.4903 134.99C24.6297 134.731 24.8189 134.502 25.0471 134.316C25.2753 134.13 25.5379 133.991 25.82 133.907C34.385 131.341 39.56 123.6 41.87 119.219C45.56 112.258 47.405 104.291 49.205 96.5798C49.2756 96.2582 49.4174 95.9566 49.6199 95.697C49.8223 95.4373 50.0803 95.2264 50.375 95.0795C50.6657 94.9305 50.9853 94.8467 51.3117 94.8337C51.6381 94.8208 51.9634 94.879 52.2649 95.0045C53.3369 95.2578 54.4578 95.2111 55.505 94.8695C74.8217 90.7323 92.8408 81.9528 108.005 69.2897C108.307 69.0335 108.673 68.8634 109.063 68.7974C109.454 68.7314 109.855 68.7719 110.225 68.9147C110.608 69.0432 110.95 69.2727 111.214 69.5789C111.478 69.8852 111.654 70.2569 111.725 70.655C112.58 75.981 118.19 79.2216 121.46 80.6918C131.615 85.2011 143.118 85.6202 153.575 81.8621C154.128 81.6616 154.738 81.6861 155.274 81.93C155.809 82.174 156.228 82.6182 156.44 83.1673C159.665 91.4488 163.85 100.991 170.3 108.942C174.92 114.628 184.55 126.45 193.79 129.106L194.36 129.256C194.646 129.332 194.913 129.463 195.148 129.642C195.383 129.822 195.58 130.046 195.729 130.301C195.877 130.557 195.974 130.839 196.013 131.132C196.052 131.425 196.033 131.723 195.957 132.009C195.882 132.295 195.75 132.562 195.571 132.797C195.392 133.032 195.168 133.23 194.912 133.378C194.656 133.526 194.374 133.623 194.081 133.662C193.788 133.701 193.491 133.683 193.205 133.607L192.515 133.412C183.23 130.756 174.68 121.409 166.82 111.778C160.49 103.991 156.32 94.9145 153.035 86.798C142.02 90.1919 130.148 89.4832 119.615 84.8026C114.095 82.3122 110.21 78.8015 108.35 74.8558C93.1548 86.8757 75.3957 95.2332 56.45 99.2803C55.3593 99.5433 54.2419 99.6792 53.12 99.6854C51.395 107.007 49.475 114.478 45.875 121.304C41.3 129.946 34.64 135.947 27.125 138.198C26.9155 138.261 26.6987 138.296 26.48 138.303Z" fill="#575756"/>
<path d="M158.12 76.7311C157.714 76.7295 157.316 76.6208 156.965 76.416C156.454 76.1075 156.086 75.6099 155.94 75.0312C155.794 74.4525 155.882 73.8395 156.185 73.3255C159.375 67.9351 161.418 61.9439 162.185 55.7272C165.32 31.2577 148.595 8.81352 124.895 5.72295C119.338 4.9923 113.691 5.37477 108.283 6.84806C102.875 8.32136 97.814 10.856 93.395 14.3045C88.6831 17.9484 84.7414 22.4916 81.7983 27.6707C78.8552 32.8497 76.9693 38.5616 76.25 44.4752C75.3221 51.6619 76.1033 58.9662 78.53 65.7941C78.6543 66.0773 78.7188 66.3832 78.7196 66.6925C78.7205 67.0018 78.6575 67.308 78.5348 67.5919C78.412 67.8758 78.232 68.1313 78.0061 68.3425C77.7801 68.5537 77.5131 68.7161 77.2216 68.8195C76.9302 68.9229 76.6205 68.965 76.312 68.9434C76.0035 68.9217 75.7028 68.8366 75.4286 68.6935C75.1545 68.5504 74.9127 68.3523 74.7185 68.1116C74.5243 67.8709 74.3818 67.5926 74.3 67.2944C71.6376 59.7931 70.7744 51.7711 71.78 43.875C72.5746 37.3722 74.6517 31.0918 77.8909 25.3978C81.13 19.7038 85.4668 14.7093 90.65 10.7039C95.5352 6.89969 101.126 4.10278 107.1 2.4752C113.074 0.847617 119.311 0.421704 125.45 1.22211C151.595 4.64275 170.075 29.3373 166.625 56.2673C165.779 63.09 163.543 69.6666 160.055 75.5909C159.861 75.9338 159.579 76.2196 159.24 76.4198C158.9 76.6199 158.514 76.7272 158.12 76.7311Z" fill="#575756"/>
<path d="M111.5 180.175C101.459 180.166 91.6253 177.316 83.1351 171.954C82.6498 171.626 82.3116 171.121 82.1925 170.547C82.0734 169.973 82.1827 169.376 82.4973 168.881C82.8118 168.387 83.3067 168.035 83.8768 167.9C84.4469 167.765 85.0472 167.857 85.5501 168.158C93.755 173.376 103.346 175.99 113.063 175.658C122.78 175.326 132.17 172.063 140 166.298C140.481 165.944 141.084 165.795 141.674 165.885C142.265 165.975 142.796 166.296 143.15 166.778C143.504 167.259 143.652 167.862 143.562 168.453C143.472 169.043 143.151 169.574 142.67 169.928C134.088 176.194 123.829 179.752 113.21 180.145C112.595 180.175 112.025 180.175 111.5 180.175Z" fill="#575756"/>
<path d="M24.635 161.482C24.4267 161.483 24.2194 161.452 24.02 161.392C21.1714 160.574 18.5123 159.201 16.1956 157.353C13.8788 155.504 11.9501 153.216 10.52 150.62C10.3782 150.36 10.289 150.074 10.2574 149.78C10.2259 149.485 10.2527 149.187 10.3363 148.903C10.4198 148.619 10.5586 148.354 10.7445 148.123C10.9305 147.893 11.16 147.701 11.42 147.559C11.68 147.417 11.9655 147.328 12.26 147.297C12.5545 147.265 12.8523 147.292 13.1364 147.375C13.4206 147.459 13.6855 147.598 13.916 147.784C14.1465 147.97 14.3382 148.199 14.48 148.459C16.781 152.634 20.6433 155.726 25.22 157.056C25.7518 157.197 26.2137 157.527 26.5184 157.985C26.8231 158.443 26.9496 158.997 26.8739 159.542C26.7982 160.086 26.5255 160.585 26.1075 160.942C25.6894 161.3 25.155 161.492 24.605 161.482H24.635Z" fill="#575756"/>
<path d="M196.07 156.816C195.53 156.812 195.009 156.614 194.602 156.258C194.196 155.902 193.931 155.412 193.857 154.876C193.782 154.341 193.902 153.797 194.196 153.343C194.489 152.889 194.936 152.556 195.455 152.405C199.55 151.205 202.955 147.469 205.955 140.958C206.064 140.671 206.23 140.409 206.444 140.188C206.658 139.967 206.914 139.793 207.198 139.675C207.482 139.558 207.787 139.499 208.094 139.504C208.401 139.509 208.704 139.576 208.984 139.702C209.264 139.829 209.515 140.011 209.722 140.238C209.929 140.465 210.087 140.732 210.187 141.022C210.287 141.313 210.327 141.621 210.303 141.927C210.279 142.233 210.193 142.532 210.05 142.803C206.555 150.59 202.205 155.151 196.76 156.726C196.536 156.791 196.303 156.821 196.07 156.816Z" fill="#575756"/>
</svg>
