<svg width="635" height="102" viewBox="0 0 635 102" fill="none" xmlns="http://www.w3.org/2000/svg">
<mask id="path-1-outside-1_45_9539" maskUnits="userSpaceOnUse" x="0.253662" y="0.779999" width="635" height="101" fill="black">
<rect fill="white" x="0.253662" y="0.779999" width="635" height="101"/>
<path d="M18.1387 74C15.9287 74 14.2287 73.405 13.0387 72.215C11.8487 71.025 11.2537 69.325 11.2537 67.115V20.96C11.2537 18.75 11.8487 17.05 13.0387 15.86C14.2287 14.67 15.9287 14.075 18.1387 14.075H47.8037C49.5037 14.075 50.7787 14.5283 51.6287 15.435C52.5353 16.285 52.9887 17.5317 52.9887 19.175C52.9887 20.875 52.5353 22.1783 51.6287 23.085C50.7787 23.935 49.5037 24.36 47.8037 24.36H23.8337V38.385H45.8487C47.6053 38.385 48.9087 38.8383 49.7587 39.745C50.6653 40.595 51.1187 41.87 51.1187 43.57C51.1187 45.27 50.6653 46.5733 49.7587 47.48C48.9087 48.33 47.6053 48.755 45.8487 48.755H23.8337V63.715H47.8037C49.5037 63.715 50.7787 64.1683 51.6287 65.075C52.5353 65.925 52.9887 67.1717 52.9887 68.815C52.9887 70.515 52.5353 71.8183 51.6287 72.725C50.7787 73.575 49.5037 74 47.8037 74H18.1387Z"/>
<path d="M76.6585 74.935C71.6152 74.935 67.8468 73.5467 65.3535 70.77C62.8602 67.9367 61.6135 63.7433 61.6135 58.19V19.855C61.6135 17.7017 62.1518 16.0867 63.2285 15.01C64.3618 13.8767 65.9768 13.31 68.0735 13.31C70.1135 13.31 71.6718 13.8767 72.7485 15.01C73.8818 16.0867 74.4485 17.7017 74.4485 19.855V57.68C74.4485 60.0033 74.9302 61.7317 75.8935 62.865C76.9135 63.9417 78.2452 64.48 79.8885 64.48C80.3418 64.48 80.7668 64.4517 81.1635 64.395C81.5602 64.3383 81.9852 64.31 82.4385 64.31C83.3452 64.1967 83.9685 64.48 84.3085 65.16C84.7052 65.7833 84.9035 67.0583 84.9035 68.985C84.9035 70.685 84.5635 71.9883 83.8835 72.895C83.2035 73.745 82.1552 74.3117 80.7385 74.595C80.1718 74.6517 79.5202 74.7083 78.7835 74.765C78.0468 74.8783 77.3385 74.935 76.6585 74.935Z"/>
<path d="M96.3792 74.68C94.2825 74.68 92.6675 74.085 91.5342 72.895C90.4575 71.6483 89.9192 69.92 89.9192 67.71V38.64C89.9192 36.3733 90.4575 34.645 91.5342 33.455C92.6675 32.2083 94.2825 31.585 96.3792 31.585C98.4192 31.585 99.9775 32.2083 101.054 33.455C102.188 34.645 102.754 36.3733 102.754 38.64V67.71C102.754 69.92 102.216 71.6483 101.139 72.895C100.063 74.085 98.4758 74.68 96.3792 74.68ZM96.3792 24.615C93.9992 24.615 92.1575 24.0767 90.8542 23C89.6075 21.8667 88.9842 20.28 88.9842 18.24C88.9842 16.1433 89.6075 14.5567 90.8542 13.48C92.1575 12.3467 93.9992 11.78 96.3792 11.78C98.7592 11.78 100.573 12.3467 101.819 13.48C103.066 14.5567 103.689 16.1433 103.689 18.24C103.689 20.28 103.066 21.8667 101.819 23C100.573 24.0767 98.7592 24.615 96.3792 24.615Z"/>
<path d="M132.723 90.235C129.663 90.235 126.717 89.98 123.883 89.47C121.107 88.96 118.642 88.195 116.488 87.175C115.185 86.6083 114.25 85.8717 113.683 84.965C113.173 84.0583 112.947 83.095 113.003 82.075C113.117 81.055 113.457 80.1483 114.023 79.355C114.647 78.5617 115.412 77.995 116.318 77.655C117.225 77.3717 118.188 77.4567 119.208 77.91C121.702 79.0433 123.997 79.78 126.093 80.12C128.247 80.46 130.088 80.63 131.618 80.63C135.245 80.63 137.965 79.8083 139.778 78.165C141.592 76.5217 142.498 74 142.498 70.6V64.14H143.263C142.413 66.7467 140.657 68.8717 137.993 70.515C135.33 72.1583 132.383 72.98 129.153 72.98C125.413 72.98 122.155 72.13 119.378 70.43C116.602 68.6733 114.448 66.2367 112.918 63.12C111.388 59.9467 110.623 56.2917 110.623 52.155C110.623 49.0383 111.048 46.205 111.898 43.655C112.805 41.105 114.052 38.9233 115.638 37.11C117.282 35.2967 119.237 33.9083 121.503 32.945C123.827 31.925 126.377 31.415 129.153 31.415C132.497 31.415 135.443 32.2367 137.993 33.88C140.6 35.4667 142.328 37.5633 143.178 40.17L142.328 42.89V38.045C142.328 35.9483 142.867 34.3617 143.943 33.285C145.077 32.1517 146.663 31.585 148.703 31.585C150.743 31.585 152.302 32.1517 153.378 33.285C154.455 34.3617 154.993 35.9483 154.993 38.045V69.155C154.993 76.125 153.067 81.3667 149.213 84.88C145.417 88.45 139.92 90.235 132.723 90.235ZM132.978 63.375C134.905 63.375 136.548 62.9217 137.908 62.015C139.325 61.1083 140.43 59.8333 141.223 58.19C142.017 56.49 142.413 54.4783 142.413 52.155C142.413 48.6417 141.535 45.9217 139.778 43.995C138.078 42.0117 135.812 41.02 132.978 41.02C131.052 41.02 129.38 41.4733 127.963 42.38C126.547 43.23 125.442 44.505 124.648 46.205C123.912 47.8483 123.543 49.8317 123.543 52.155C123.543 55.6683 124.393 58.4167 126.093 60.4C127.793 62.3833 130.088 63.375 132.978 63.375Z"/>
<path d="M186.633 74.935C181.703 74.935 177.453 74.0567 173.883 72.3C170.37 70.4867 167.65 67.965 165.723 64.735C163.853 61.4483 162.918 57.595 162.918 53.175C162.918 48.8683 163.825 45.1 165.638 41.87C167.452 38.5833 169.973 36.0333 173.203 34.22C176.49 32.35 180.202 31.415 184.338 31.415C187.342 31.415 190.062 31.925 192.498 32.945C194.935 33.9083 197.032 35.325 198.788 37.195C200.545 39.0083 201.877 41.2467 202.783 43.91C203.69 46.5167 204.143 49.435 204.143 52.665C204.143 53.7417 203.803 54.5633 203.123 55.13C202.443 55.64 201.452 55.895 200.148 55.895H173.458V49.265H194.878L193.518 50.455C193.518 48.1317 193.178 46.205 192.498 44.675C191.818 43.0883 190.827 41.8983 189.523 41.105C188.277 40.3117 186.718 39.915 184.848 39.915C182.752 39.915 180.967 40.3967 179.493 41.36C178.02 42.3233 176.887 43.7117 176.093 45.525C175.3 47.3383 174.903 49.52 174.903 52.07V52.75C174.903 57.0567 175.895 60.23 177.878 62.27C179.918 64.31 182.922 65.33 186.888 65.33C188.248 65.33 189.807 65.16 191.563 64.82C193.32 64.48 194.963 63.9417 196.493 63.205C197.797 62.5817 198.958 62.3833 199.978 62.61C200.998 62.78 201.792 63.2333 202.358 63.97C202.925 64.7067 203.237 65.5567 203.293 66.52C203.407 67.4833 203.208 68.4467 202.698 69.41C202.188 70.3167 201.338 71.0817 200.148 71.705C198.222 72.7817 196.04 73.575 193.603 74.085C191.223 74.6517 188.9 74.935 186.633 74.935Z"/>
<path d="M250.734 74.935C247.221 74.935 244.302 74.2833 241.979 72.98C239.656 71.6767 237.927 69.7217 236.794 67.115C235.717 64.4517 235.179 61.165 235.179 57.255V38.045C235.179 35.8917 235.717 34.2767 236.794 33.2C237.927 32.1233 239.514 31.585 241.554 31.585C243.594 31.585 245.181 32.1233 246.314 33.2C247.447 34.2767 248.014 35.8917 248.014 38.045V57.595C248.014 60.0883 248.524 61.9583 249.544 63.205C250.564 64.395 252.179 64.99 254.389 64.99C256.826 64.99 258.809 64.14 260.339 62.44C261.926 60.6833 262.719 58.3883 262.719 55.555V38.045C262.719 35.8917 263.257 34.2767 264.334 33.2C265.467 32.1233 267.054 31.585 269.094 31.585C271.191 31.585 272.777 32.1233 273.854 33.2C274.987 34.2767 275.554 35.8917 275.554 38.045V68.22C275.554 72.5833 273.486 74.765 269.349 74.765C267.309 74.765 265.751 74.1983 264.674 73.065C263.597 71.9317 263.059 70.3167 263.059 68.22V62.525L264.334 65.84C263.087 68.73 261.302 70.9683 258.979 72.555C256.656 74.1417 253.907 74.935 250.734 74.935Z"/>
<path d="M291.946 74.765C289.849 74.765 288.234 74.1983 287.101 73.065C286.024 71.9317 285.486 70.3167 285.486 68.22V38.045C285.486 35.9483 286.024 34.3617 287.101 33.285C288.234 32.1517 289.792 31.585 291.776 31.585C293.816 31.585 295.374 32.1517 296.451 33.285C297.527 34.3617 298.066 35.9483 298.066 38.045V42.89L297.131 40.085C298.434 37.3083 300.361 35.1833 302.911 33.71C305.517 32.18 308.464 31.415 311.751 31.415C315.094 31.415 317.842 32.0667 319.996 33.37C322.149 34.6167 323.764 36.5433 324.841 39.15C325.917 41.7 326.456 44.9583 326.456 48.925V68.22C326.456 70.3167 325.889 71.9317 324.756 73.065C323.679 74.1983 322.092 74.765 319.996 74.765C317.956 74.765 316.369 74.1983 315.236 73.065C314.159 71.9317 313.621 70.3167 313.621 68.22V49.52C313.621 46.63 313.082 44.5617 312.006 43.315C310.986 42.0117 309.399 41.36 307.246 41.36C304.526 41.36 302.344 42.21 300.701 43.91C299.114 45.61 298.321 47.8767 298.321 50.71V68.22C298.321 72.5833 296.196 74.765 291.946 74.765Z"/>
<path d="M380.093 74.935C375.559 74.935 371.593 74.0567 368.193 72.3C364.849 70.4867 362.271 67.9367 360.458 64.65C358.644 61.3633 357.738 57.4817 357.738 53.005C357.738 49.6617 358.248 46.6583 359.268 43.995C360.288 41.3317 361.761 39.065 363.688 37.195C365.671 35.325 368.051 33.9083 370.828 32.945C373.604 31.925 376.693 31.415 380.093 31.415C381.849 31.415 383.719 31.6417 385.703 32.095C387.686 32.4917 389.641 33.2 391.568 34.22C392.701 34.73 393.466 35.4667 393.863 36.43C394.316 37.3367 394.486 38.3 394.373 39.32C394.259 40.2833 393.891 41.1617 393.268 41.955C392.701 42.6917 391.964 43.2017 391.058 43.485C390.151 43.7117 389.131 43.5417 387.998 42.975C386.921 42.3517 385.788 41.8983 384.598 41.615C383.464 41.3317 382.388 41.19 381.368 41.19C379.668 41.19 378.166 41.4733 376.863 42.04C375.559 42.55 374.454 43.315 373.548 44.335C372.698 45.2983 372.018 46.5167 371.508 47.99C371.054 49.4633 370.828 51.1633 370.828 53.09C370.828 56.83 371.734 59.7767 373.548 61.93C375.418 64.0267 378.024 65.075 381.368 65.075C382.388 65.075 383.464 64.9617 384.598 64.735C385.731 64.4517 386.864 63.9983 387.998 63.375C389.131 62.8083 390.151 62.6667 391.058 62.95C391.964 63.2333 392.673 63.7717 393.183 64.565C393.749 65.3017 394.061 66.18 394.118 67.2C394.231 68.1633 394.061 69.1267 393.608 70.09C393.211 70.9967 392.474 71.705 391.398 72.215C389.471 73.1783 387.544 73.8583 385.618 74.255C383.691 74.7083 381.849 74.935 380.093 74.935Z"/>
<path d="M415.753 74.935C412.24 74.935 409.322 74.2833 406.998 72.98C404.675 71.6767 402.947 69.7217 401.813 67.115C400.737 64.4517 400.198 61.165 400.198 57.255V38.045C400.198 35.8917 400.737 34.2767 401.813 33.2C402.947 32.1233 404.533 31.585 406.573 31.585C408.613 31.585 410.2 32.1233 411.333 33.2C412.467 34.2767 413.033 35.8917 413.033 38.045V57.595C413.033 60.0883 413.543 61.9583 414.563 63.205C415.583 64.395 417.198 64.99 419.408 64.99C421.845 64.99 423.828 64.14 425.358 62.44C426.945 60.6833 427.738 58.3883 427.738 55.555V38.045C427.738 35.8917 428.277 34.2767 429.353 33.2C430.487 32.1233 432.073 31.585 434.113 31.585C436.21 31.585 437.797 32.1233 438.873 33.2C440.007 34.2767 440.573 35.8917 440.573 38.045V68.22C440.573 72.5833 438.505 74.765 434.368 74.765C432.328 74.765 430.77 74.1983 429.693 73.065C428.617 71.9317 428.078 70.3167 428.078 68.22V62.525L429.353 65.84C428.107 68.73 426.322 70.9683 423.998 72.555C421.675 74.1417 418.927 74.935 415.753 74.935Z"/>
<path d="M472.18 74.935C467.25 74.935 463 74.0567 459.43 72.3C455.917 70.4867 453.197 67.965 451.27 64.735C449.4 61.4483 448.465 57.595 448.465 53.175C448.465 48.8683 449.372 45.1 451.185 41.87C452.998 38.5833 455.52 36.0333 458.75 34.22C462.037 32.35 465.748 31.415 469.885 31.415C472.888 31.415 475.608 31.925 478.045 32.945C480.482 33.9083 482.578 35.325 484.335 37.195C486.092 39.0083 487.423 41.2467 488.33 43.91C489.237 46.5167 489.69 49.435 489.69 52.665C489.69 53.7417 489.35 54.5633 488.67 55.13C487.99 55.64 486.998 55.895 485.695 55.895H459.005V49.265H480.425L479.065 50.455C479.065 48.1317 478.725 46.205 478.045 44.675C477.365 43.0883 476.373 41.8983 475.07 41.105C473.823 40.3117 472.265 39.915 470.395 39.915C468.298 39.915 466.513 40.3967 465.04 41.36C463.567 42.3233 462.433 43.7117 461.64 45.525C460.847 47.3383 460.45 49.52 460.45 52.07V52.75C460.45 57.0567 461.442 60.23 463.425 62.27C465.465 64.31 468.468 65.33 472.435 65.33C473.795 65.33 475.353 65.16 477.11 64.82C478.867 64.48 480.51 63.9417 482.04 63.205C483.343 62.5817 484.505 62.3833 485.525 62.61C486.545 62.78 487.338 63.2333 487.905 63.97C488.472 64.7067 488.783 65.5567 488.84 66.52C488.953 67.4833 488.755 68.4467 488.245 69.41C487.735 70.3167 486.885 71.0817 485.695 71.705C483.768 72.7817 481.587 73.575 479.15 74.085C476.77 74.6517 474.447 74.935 472.18 74.935Z"/>
<path d="M503.616 74.765C501.519 74.765 499.904 74.1983 498.771 73.065C497.694 71.9317 497.155 70.3167 497.155 68.22V38.045C497.155 35.9483 497.694 34.3617 498.771 33.285C499.904 32.1517 501.462 31.585 503.445 31.585C505.485 31.585 507.044 32.1517 508.12 33.285C509.197 34.3617 509.736 35.9483 509.736 38.045V42.89L508.801 40.085C510.104 37.3083 512.031 35.1833 514.581 33.71C517.187 32.18 520.134 31.415 523.42 31.415C526.764 31.415 529.512 32.0667 531.666 33.37C533.819 34.6167 535.434 36.5433 536.51 39.15C537.587 41.7 538.125 44.9583 538.125 48.925V68.22C538.125 70.3167 537.559 71.9317 536.425 73.065C535.349 74.1983 533.762 74.765 531.666 74.765C529.626 74.765 528.039 74.1983 526.906 73.065C525.829 71.9317 525.291 70.3167 525.291 68.22V49.52C525.291 46.63 524.752 44.5617 523.675 43.315C522.655 42.0117 521.069 41.36 518.915 41.36C516.195 41.36 514.014 42.21 512.371 43.91C510.784 45.61 509.991 47.8767 509.991 50.71V68.22C509.991 72.5833 507.866 74.765 503.616 74.765Z"/>
<path d="M568.192 74.935C564.282 74.935 560.996 74.2833 558.332 72.98C555.726 71.6767 553.771 69.7783 552.467 67.285C551.221 64.7917 550.597 61.6467 550.597 57.85V41.87H547.027C545.441 41.87 544.194 41.445 543.287 40.595C542.437 39.745 542.012 38.5833 542.012 37.11C542.012 35.5233 542.437 34.3333 543.287 33.54C544.194 32.69 545.441 32.265 547.027 32.265H550.597V25.805C550.597 23.6517 551.164 22.0367 552.297 20.96C553.431 19.8267 555.017 19.26 557.057 19.26C559.154 19.26 560.741 19.8267 561.817 20.96C562.894 22.0367 563.432 23.6517 563.432 25.805V32.265H571.507C573.094 32.265 574.312 32.69 575.162 33.54C576.012 34.3333 576.437 35.5233 576.437 37.11C576.437 38.5833 576.012 39.745 575.162 40.595C574.312 41.445 573.094 41.87 571.507 41.87H563.432V57.34C563.432 59.72 563.971 61.505 565.047 62.695C566.181 63.885 567.966 64.48 570.402 64.48C571.252 64.48 572.046 64.395 572.782 64.225C573.519 64.055 574.199 63.9417 574.822 63.885C575.616 63.8283 576.267 64.0833 576.777 64.65C577.287 65.16 577.542 66.3217 577.542 68.135C577.542 69.495 577.316 70.685 576.862 71.705C576.409 72.725 575.616 73.4617 574.482 73.915C573.746 74.1983 572.726 74.425 571.422 74.595C570.176 74.8217 569.099 74.935 568.192 74.935Z"/>
<path d="M601.717 74.935C597.241 74.935 593.331 74.0567 589.987 72.3C586.701 70.5433 584.151 68.0217 582.337 64.735C580.524 61.4483 579.617 57.5667 579.617 53.09C579.617 49.7467 580.127 46.7433 581.147 44.08C582.167 41.4167 583.641 39.15 585.567 37.28C587.551 35.3533 589.902 33.9083 592.622 32.945C595.342 31.925 598.374 31.415 601.717 31.415C606.194 31.415 610.076 32.2933 613.362 34.05C616.706 35.8067 619.284 38.3 621.097 41.53C622.967 44.76 623.902 48.6133 623.902 53.09C623.902 56.49 623.364 59.5217 622.287 62.185C621.267 64.8483 619.794 67.1433 617.867 69.07C615.941 70.9967 613.589 72.47 610.812 73.49C608.092 74.4533 605.061 74.935 601.717 74.935ZM601.717 65.33C603.587 65.33 605.202 64.8767 606.562 63.97C607.922 63.0633 608.999 61.7317 609.792 59.975C610.586 58.1617 610.982 55.8667 610.982 53.09C610.982 48.9533 610.132 45.9217 608.432 43.995C606.732 42.0117 604.494 41.02 601.717 41.02C599.904 41.02 598.289 41.445 596.872 42.295C595.512 43.145 594.436 44.4767 593.642 46.29C592.906 48.0467 592.537 50.3133 592.537 53.09C592.537 57.2267 593.387 60.315 595.087 62.355C596.787 64.3383 598.997 65.33 601.717 65.33Z"/>
</mask>
<path d="M18.1387 74C15.9287 74 14.2287 73.405 13.0387 72.215C11.8487 71.025 11.2537 69.325 11.2537 67.115V20.96C11.2537 18.75 11.8487 17.05 13.0387 15.86C14.2287 14.67 15.9287 14.075 18.1387 14.075H47.8037C49.5037 14.075 50.7787 14.5283 51.6287 15.435C52.5353 16.285 52.9887 17.5317 52.9887 19.175C52.9887 20.875 52.5353 22.1783 51.6287 23.085C50.7787 23.935 49.5037 24.36 47.8037 24.36H23.8337V38.385H45.8487C47.6053 38.385 48.9087 38.8383 49.7587 39.745C50.6653 40.595 51.1187 41.87 51.1187 43.57C51.1187 45.27 50.6653 46.5733 49.7587 47.48C48.9087 48.33 47.6053 48.755 45.8487 48.755H23.8337V63.715H47.8037C49.5037 63.715 50.7787 64.1683 51.6287 65.075C52.5353 65.925 52.9887 67.1717 52.9887 68.815C52.9887 70.515 52.5353 71.8183 51.6287 72.725C50.7787 73.575 49.5037 74 47.8037 74H18.1387Z" fill="#F7AE5A"/>
<path d="M76.6585 74.935C71.6152 74.935 67.8468 73.5467 65.3535 70.77C62.8602 67.9367 61.6135 63.7433 61.6135 58.19V19.855C61.6135 17.7017 62.1518 16.0867 63.2285 15.01C64.3618 13.8767 65.9768 13.31 68.0735 13.31C70.1135 13.31 71.6718 13.8767 72.7485 15.01C73.8818 16.0867 74.4485 17.7017 74.4485 19.855V57.68C74.4485 60.0033 74.9302 61.7317 75.8935 62.865C76.9135 63.9417 78.2452 64.48 79.8885 64.48C80.3418 64.48 80.7668 64.4517 81.1635 64.395C81.5602 64.3383 81.9852 64.31 82.4385 64.31C83.3452 64.1967 83.9685 64.48 84.3085 65.16C84.7052 65.7833 84.9035 67.0583 84.9035 68.985C84.9035 70.685 84.5635 71.9883 83.8835 72.895C83.2035 73.745 82.1552 74.3117 80.7385 74.595C80.1718 74.6517 79.5202 74.7083 78.7835 74.765C78.0468 74.8783 77.3385 74.935 76.6585 74.935Z" fill="#F7AE5A"/>
<path d="M96.3792 74.68C94.2825 74.68 92.6675 74.085 91.5342 72.895C90.4575 71.6483 89.9192 69.92 89.9192 67.71V38.64C89.9192 36.3733 90.4575 34.645 91.5342 33.455C92.6675 32.2083 94.2825 31.585 96.3792 31.585C98.4192 31.585 99.9775 32.2083 101.054 33.455C102.188 34.645 102.754 36.3733 102.754 38.64V67.71C102.754 69.92 102.216 71.6483 101.139 72.895C100.063 74.085 98.4758 74.68 96.3792 74.68ZM96.3792 24.615C93.9992 24.615 92.1575 24.0767 90.8542 23C89.6075 21.8667 88.9842 20.28 88.9842 18.24C88.9842 16.1433 89.6075 14.5567 90.8542 13.48C92.1575 12.3467 93.9992 11.78 96.3792 11.78C98.7592 11.78 100.573 12.3467 101.819 13.48C103.066 14.5567 103.689 16.1433 103.689 18.24C103.689 20.28 103.066 21.8667 101.819 23C100.573 24.0767 98.7592 24.615 96.3792 24.615Z" fill="#F7AE5A"/>
<path d="M132.723 90.235C129.663 90.235 126.717 89.98 123.883 89.47C121.107 88.96 118.642 88.195 116.488 87.175C115.185 86.6083 114.25 85.8717 113.683 84.965C113.173 84.0583 112.947 83.095 113.003 82.075C113.117 81.055 113.457 80.1483 114.023 79.355C114.647 78.5617 115.412 77.995 116.318 77.655C117.225 77.3717 118.188 77.4567 119.208 77.91C121.702 79.0433 123.997 79.78 126.093 80.12C128.247 80.46 130.088 80.63 131.618 80.63C135.245 80.63 137.965 79.8083 139.778 78.165C141.592 76.5217 142.498 74 142.498 70.6V64.14H143.263C142.413 66.7467 140.657 68.8717 137.993 70.515C135.33 72.1583 132.383 72.98 129.153 72.98C125.413 72.98 122.155 72.13 119.378 70.43C116.602 68.6733 114.448 66.2367 112.918 63.12C111.388 59.9467 110.623 56.2917 110.623 52.155C110.623 49.0383 111.048 46.205 111.898 43.655C112.805 41.105 114.052 38.9233 115.638 37.11C117.282 35.2967 119.237 33.9083 121.503 32.945C123.827 31.925 126.377 31.415 129.153 31.415C132.497 31.415 135.443 32.2367 137.993 33.88C140.6 35.4667 142.328 37.5633 143.178 40.17L142.328 42.89V38.045C142.328 35.9483 142.867 34.3617 143.943 33.285C145.077 32.1517 146.663 31.585 148.703 31.585C150.743 31.585 152.302 32.1517 153.378 33.285C154.455 34.3617 154.993 35.9483 154.993 38.045V69.155C154.993 76.125 153.067 81.3667 149.213 84.88C145.417 88.45 139.92 90.235 132.723 90.235ZM132.978 63.375C134.905 63.375 136.548 62.9217 137.908 62.015C139.325 61.1083 140.43 59.8333 141.223 58.19C142.017 56.49 142.413 54.4783 142.413 52.155C142.413 48.6417 141.535 45.9217 139.778 43.995C138.078 42.0117 135.812 41.02 132.978 41.02C131.052 41.02 129.38 41.4733 127.963 42.38C126.547 43.23 125.442 44.505 124.648 46.205C123.912 47.8483 123.543 49.8317 123.543 52.155C123.543 55.6683 124.393 58.4167 126.093 60.4C127.793 62.3833 130.088 63.375 132.978 63.375Z" fill="#F7AE5A"/>
<path d="M186.633 74.935C181.703 74.935 177.453 74.0567 173.883 72.3C170.37 70.4867 167.65 67.965 165.723 64.735C163.853 61.4483 162.918 57.595 162.918 53.175C162.918 48.8683 163.825 45.1 165.638 41.87C167.452 38.5833 169.973 36.0333 173.203 34.22C176.49 32.35 180.202 31.415 184.338 31.415C187.342 31.415 190.062 31.925 192.498 32.945C194.935 33.9083 197.032 35.325 198.788 37.195C200.545 39.0083 201.877 41.2467 202.783 43.91C203.69 46.5167 204.143 49.435 204.143 52.665C204.143 53.7417 203.803 54.5633 203.123 55.13C202.443 55.64 201.452 55.895 200.148 55.895H173.458V49.265H194.878L193.518 50.455C193.518 48.1317 193.178 46.205 192.498 44.675C191.818 43.0883 190.827 41.8983 189.523 41.105C188.277 40.3117 186.718 39.915 184.848 39.915C182.752 39.915 180.967 40.3967 179.493 41.36C178.02 42.3233 176.887 43.7117 176.093 45.525C175.3 47.3383 174.903 49.52 174.903 52.07V52.75C174.903 57.0567 175.895 60.23 177.878 62.27C179.918 64.31 182.922 65.33 186.888 65.33C188.248 65.33 189.807 65.16 191.563 64.82C193.32 64.48 194.963 63.9417 196.493 63.205C197.797 62.5817 198.958 62.3833 199.978 62.61C200.998 62.78 201.792 63.2333 202.358 63.97C202.925 64.7067 203.237 65.5567 203.293 66.52C203.407 67.4833 203.208 68.4467 202.698 69.41C202.188 70.3167 201.338 71.0817 200.148 71.705C198.222 72.7817 196.04 73.575 193.603 74.085C191.223 74.6517 188.9 74.935 186.633 74.935Z" fill="#F7AE5A"/>
<path d="M250.734 74.935C247.221 74.935 244.302 74.2833 241.979 72.98C239.656 71.6767 237.927 69.7217 236.794 67.115C235.717 64.4517 235.179 61.165 235.179 57.255V38.045C235.179 35.8917 235.717 34.2767 236.794 33.2C237.927 32.1233 239.514 31.585 241.554 31.585C243.594 31.585 245.181 32.1233 246.314 33.2C247.447 34.2767 248.014 35.8917 248.014 38.045V57.595C248.014 60.0883 248.524 61.9583 249.544 63.205C250.564 64.395 252.179 64.99 254.389 64.99C256.826 64.99 258.809 64.14 260.339 62.44C261.926 60.6833 262.719 58.3883 262.719 55.555V38.045C262.719 35.8917 263.257 34.2767 264.334 33.2C265.467 32.1233 267.054 31.585 269.094 31.585C271.191 31.585 272.777 32.1233 273.854 33.2C274.987 34.2767 275.554 35.8917 275.554 38.045V68.22C275.554 72.5833 273.486 74.765 269.349 74.765C267.309 74.765 265.751 74.1983 264.674 73.065C263.597 71.9317 263.059 70.3167 263.059 68.22V62.525L264.334 65.84C263.087 68.73 261.302 70.9683 258.979 72.555C256.656 74.1417 253.907 74.935 250.734 74.935Z" fill="#F7AE5A"/>
<path d="M291.946 74.765C289.849 74.765 288.234 74.1983 287.101 73.065C286.024 71.9317 285.486 70.3167 285.486 68.22V38.045C285.486 35.9483 286.024 34.3617 287.101 33.285C288.234 32.1517 289.792 31.585 291.776 31.585C293.816 31.585 295.374 32.1517 296.451 33.285C297.527 34.3617 298.066 35.9483 298.066 38.045V42.89L297.131 40.085C298.434 37.3083 300.361 35.1833 302.911 33.71C305.517 32.18 308.464 31.415 311.751 31.415C315.094 31.415 317.842 32.0667 319.996 33.37C322.149 34.6167 323.764 36.5433 324.841 39.15C325.917 41.7 326.456 44.9583 326.456 48.925V68.22C326.456 70.3167 325.889 71.9317 324.756 73.065C323.679 74.1983 322.092 74.765 319.996 74.765C317.956 74.765 316.369 74.1983 315.236 73.065C314.159 71.9317 313.621 70.3167 313.621 68.22V49.52C313.621 46.63 313.082 44.5617 312.006 43.315C310.986 42.0117 309.399 41.36 307.246 41.36C304.526 41.36 302.344 42.21 300.701 43.91C299.114 45.61 298.321 47.8767 298.321 50.71V68.22C298.321 72.5833 296.196 74.765 291.946 74.765Z" fill="#F7AE5A"/>
<path d="M380.093 74.935C375.559 74.935 371.593 74.0567 368.193 72.3C364.849 70.4867 362.271 67.9367 360.458 64.65C358.644 61.3633 357.738 57.4817 357.738 53.005C357.738 49.6617 358.248 46.6583 359.268 43.995C360.288 41.3317 361.761 39.065 363.688 37.195C365.671 35.325 368.051 33.9083 370.828 32.945C373.604 31.925 376.693 31.415 380.093 31.415C381.849 31.415 383.719 31.6417 385.703 32.095C387.686 32.4917 389.641 33.2 391.568 34.22C392.701 34.73 393.466 35.4667 393.863 36.43C394.316 37.3367 394.486 38.3 394.373 39.32C394.259 40.2833 393.891 41.1617 393.268 41.955C392.701 42.6917 391.964 43.2017 391.058 43.485C390.151 43.7117 389.131 43.5417 387.998 42.975C386.921 42.3517 385.788 41.8983 384.598 41.615C383.464 41.3317 382.388 41.19 381.368 41.19C379.668 41.19 378.166 41.4733 376.863 42.04C375.559 42.55 374.454 43.315 373.548 44.335C372.698 45.2983 372.018 46.5167 371.508 47.99C371.054 49.4633 370.828 51.1633 370.828 53.09C370.828 56.83 371.734 59.7767 373.548 61.93C375.418 64.0267 378.024 65.075 381.368 65.075C382.388 65.075 383.464 64.9617 384.598 64.735C385.731 64.4517 386.864 63.9983 387.998 63.375C389.131 62.8083 390.151 62.6667 391.058 62.95C391.964 63.2333 392.673 63.7717 393.183 64.565C393.749 65.3017 394.061 66.18 394.118 67.2C394.231 68.1633 394.061 69.1267 393.608 70.09C393.211 70.9967 392.474 71.705 391.398 72.215C389.471 73.1783 387.544 73.8583 385.618 74.255C383.691 74.7083 381.849 74.935 380.093 74.935Z" fill="#F7AE5A"/>
<path d="M415.753 74.935C412.24 74.935 409.322 74.2833 406.998 72.98C404.675 71.6767 402.947 69.7217 401.813 67.115C400.737 64.4517 400.198 61.165 400.198 57.255V38.045C400.198 35.8917 400.737 34.2767 401.813 33.2C402.947 32.1233 404.533 31.585 406.573 31.585C408.613 31.585 410.2 32.1233 411.333 33.2C412.467 34.2767 413.033 35.8917 413.033 38.045V57.595C413.033 60.0883 413.543 61.9583 414.563 63.205C415.583 64.395 417.198 64.99 419.408 64.99C421.845 64.99 423.828 64.14 425.358 62.44C426.945 60.6833 427.738 58.3883 427.738 55.555V38.045C427.738 35.8917 428.277 34.2767 429.353 33.2C430.487 32.1233 432.073 31.585 434.113 31.585C436.21 31.585 437.797 32.1233 438.873 33.2C440.007 34.2767 440.573 35.8917 440.573 38.045V68.22C440.573 72.5833 438.505 74.765 434.368 74.765C432.328 74.765 430.77 74.1983 429.693 73.065C428.617 71.9317 428.078 70.3167 428.078 68.22V62.525L429.353 65.84C428.107 68.73 426.322 70.9683 423.998 72.555C421.675 74.1417 418.927 74.935 415.753 74.935Z" fill="#F7AE5A"/>
<path d="M472.18 74.935C467.25 74.935 463 74.0567 459.43 72.3C455.917 70.4867 453.197 67.965 451.27 64.735C449.4 61.4483 448.465 57.595 448.465 53.175C448.465 48.8683 449.372 45.1 451.185 41.87C452.998 38.5833 455.52 36.0333 458.75 34.22C462.037 32.35 465.748 31.415 469.885 31.415C472.888 31.415 475.608 31.925 478.045 32.945C480.482 33.9083 482.578 35.325 484.335 37.195C486.092 39.0083 487.423 41.2467 488.33 43.91C489.237 46.5167 489.69 49.435 489.69 52.665C489.69 53.7417 489.35 54.5633 488.67 55.13C487.99 55.64 486.998 55.895 485.695 55.895H459.005V49.265H480.425L479.065 50.455C479.065 48.1317 478.725 46.205 478.045 44.675C477.365 43.0883 476.373 41.8983 475.07 41.105C473.823 40.3117 472.265 39.915 470.395 39.915C468.298 39.915 466.513 40.3967 465.04 41.36C463.567 42.3233 462.433 43.7117 461.64 45.525C460.847 47.3383 460.45 49.52 460.45 52.07V52.75C460.45 57.0567 461.442 60.23 463.425 62.27C465.465 64.31 468.468 65.33 472.435 65.33C473.795 65.33 475.353 65.16 477.11 64.82C478.867 64.48 480.51 63.9417 482.04 63.205C483.343 62.5817 484.505 62.3833 485.525 62.61C486.545 62.78 487.338 63.2333 487.905 63.97C488.472 64.7067 488.783 65.5567 488.84 66.52C488.953 67.4833 488.755 68.4467 488.245 69.41C487.735 70.3167 486.885 71.0817 485.695 71.705C483.768 72.7817 481.587 73.575 479.15 74.085C476.77 74.6517 474.447 74.935 472.18 74.935Z" fill="#F7AE5A"/>
<path d="M503.616 74.765C501.519 74.765 499.904 74.1983 498.771 73.065C497.694 71.9317 497.155 70.3167 497.155 68.22V38.045C497.155 35.9483 497.694 34.3617 498.771 33.285C499.904 32.1517 501.462 31.585 503.445 31.585C505.485 31.585 507.044 32.1517 508.12 33.285C509.197 34.3617 509.736 35.9483 509.736 38.045V42.89L508.801 40.085C510.104 37.3083 512.031 35.1833 514.581 33.71C517.187 32.18 520.134 31.415 523.42 31.415C526.764 31.415 529.512 32.0667 531.666 33.37C533.819 34.6167 535.434 36.5433 536.51 39.15C537.587 41.7 538.125 44.9583 538.125 48.925V68.22C538.125 70.3167 537.559 71.9317 536.425 73.065C535.349 74.1983 533.762 74.765 531.666 74.765C529.626 74.765 528.039 74.1983 526.906 73.065C525.829 71.9317 525.291 70.3167 525.291 68.22V49.52C525.291 46.63 524.752 44.5617 523.675 43.315C522.655 42.0117 521.069 41.36 518.915 41.36C516.195 41.36 514.014 42.21 512.371 43.91C510.784 45.61 509.991 47.8767 509.991 50.71V68.22C509.991 72.5833 507.866 74.765 503.616 74.765Z" fill="#F7AE5A"/>
<path d="M568.192 74.935C564.282 74.935 560.996 74.2833 558.332 72.98C555.726 71.6767 553.771 69.7783 552.467 67.285C551.221 64.7917 550.597 61.6467 550.597 57.85V41.87H547.027C545.441 41.87 544.194 41.445 543.287 40.595C542.437 39.745 542.012 38.5833 542.012 37.11C542.012 35.5233 542.437 34.3333 543.287 33.54C544.194 32.69 545.441 32.265 547.027 32.265H550.597V25.805C550.597 23.6517 551.164 22.0367 552.297 20.96C553.431 19.8267 555.017 19.26 557.057 19.26C559.154 19.26 560.741 19.8267 561.817 20.96C562.894 22.0367 563.432 23.6517 563.432 25.805V32.265H571.507C573.094 32.265 574.312 32.69 575.162 33.54C576.012 34.3333 576.437 35.5233 576.437 37.11C576.437 38.5833 576.012 39.745 575.162 40.595C574.312 41.445 573.094 41.87 571.507 41.87H563.432V57.34C563.432 59.72 563.971 61.505 565.047 62.695C566.181 63.885 567.966 64.48 570.402 64.48C571.252 64.48 572.046 64.395 572.782 64.225C573.519 64.055 574.199 63.9417 574.822 63.885C575.616 63.8283 576.267 64.0833 576.777 64.65C577.287 65.16 577.542 66.3217 577.542 68.135C577.542 69.495 577.316 70.685 576.862 71.705C576.409 72.725 575.616 73.4617 574.482 73.915C573.746 74.1983 572.726 74.425 571.422 74.595C570.176 74.8217 569.099 74.935 568.192 74.935Z" fill="#F7AE5A"/>
<path d="M601.717 74.935C597.241 74.935 593.331 74.0567 589.987 72.3C586.701 70.5433 584.151 68.0217 582.337 64.735C580.524 61.4483 579.617 57.5667 579.617 53.09C579.617 49.7467 580.127 46.7433 581.147 44.08C582.167 41.4167 583.641 39.15 585.567 37.28C587.551 35.3533 589.902 33.9083 592.622 32.945C595.342 31.925 598.374 31.415 601.717 31.415C606.194 31.415 610.076 32.2933 613.362 34.05C616.706 35.8067 619.284 38.3 621.097 41.53C622.967 44.76 623.902 48.6133 623.902 53.09C623.902 56.49 623.364 59.5217 622.287 62.185C621.267 64.8483 619.794 67.1433 617.867 69.07C615.941 70.9967 613.589 72.47 610.812 73.49C608.092 74.4533 605.061 74.935 601.717 74.935ZM601.717 65.33C603.587 65.33 605.202 64.8767 606.562 63.97C607.922 63.0633 608.999 61.7317 609.792 59.975C610.586 58.1617 610.982 55.8667 610.982 53.09C610.982 48.9533 610.132 45.9217 608.432 43.995C606.732 42.0117 604.494 41.02 601.717 41.02C599.904 41.02 598.289 41.445 596.872 42.295C595.512 43.145 594.436 44.4767 593.642 46.29C592.906 48.0467 592.537 50.3133 592.537 53.09C592.537 57.2267 593.387 60.315 595.087 62.355C596.787 64.3383 598.997 65.33 601.717 65.33Z" fill="#F7AE5A"/>
<path d="M18.1387 74C15.9287 74 14.2287 73.405 13.0387 72.215C11.8487 71.025 11.2537 69.325 11.2537 67.115V20.96C11.2537 18.75 11.8487 17.05 13.0387 15.86C14.2287 14.67 15.9287 14.075 18.1387 14.075H47.8037C49.5037 14.075 50.7787 14.5283 51.6287 15.435C52.5353 16.285 52.9887 17.5317 52.9887 19.175C52.9887 20.875 52.5353 22.1783 51.6287 23.085C50.7787 23.935 49.5037 24.36 47.8037 24.36H23.8337V38.385H45.8487C47.6053 38.385 48.9087 38.8383 49.7587 39.745C50.6653 40.595 51.1187 41.87 51.1187 43.57C51.1187 45.27 50.6653 46.5733 49.7587 47.48C48.9087 48.33 47.6053 48.755 45.8487 48.755H23.8337V63.715H47.8037C49.5037 63.715 50.7787 64.1683 51.6287 65.075C52.5353 65.925 52.9887 67.1717 52.9887 68.815C52.9887 70.515 52.5353 71.8183 51.6287 72.725C50.7787 73.575 49.5037 74 47.8037 74H18.1387Z" stroke="white" stroke-width="22" mask="url(#path-1-outside-1_45_9539)"/>
<path d="M76.6585 74.935C71.6152 74.935 67.8468 73.5467 65.3535 70.77C62.8602 67.9367 61.6135 63.7433 61.6135 58.19V19.855C61.6135 17.7017 62.1518 16.0867 63.2285 15.01C64.3618 13.8767 65.9768 13.31 68.0735 13.31C70.1135 13.31 71.6718 13.8767 72.7485 15.01C73.8818 16.0867 74.4485 17.7017 74.4485 19.855V57.68C74.4485 60.0033 74.9302 61.7317 75.8935 62.865C76.9135 63.9417 78.2452 64.48 79.8885 64.48C80.3418 64.48 80.7668 64.4517 81.1635 64.395C81.5602 64.3383 81.9852 64.31 82.4385 64.31C83.3452 64.1967 83.9685 64.48 84.3085 65.16C84.7052 65.7833 84.9035 67.0583 84.9035 68.985C84.9035 70.685 84.5635 71.9883 83.8835 72.895C83.2035 73.745 82.1552 74.3117 80.7385 74.595C80.1718 74.6517 79.5202 74.7083 78.7835 74.765C78.0468 74.8783 77.3385 74.935 76.6585 74.935Z" stroke="white" stroke-width="22" mask="url(#path-1-outside-1_45_9539)"/>
<path d="M96.3792 74.68C94.2825 74.68 92.6675 74.085 91.5342 72.895C90.4575 71.6483 89.9192 69.92 89.9192 67.71V38.64C89.9192 36.3733 90.4575 34.645 91.5342 33.455C92.6675 32.2083 94.2825 31.585 96.3792 31.585C98.4192 31.585 99.9775 32.2083 101.054 33.455C102.188 34.645 102.754 36.3733 102.754 38.64V67.71C102.754 69.92 102.216 71.6483 101.139 72.895C100.063 74.085 98.4758 74.68 96.3792 74.68ZM96.3792 24.615C93.9992 24.615 92.1575 24.0767 90.8542 23C89.6075 21.8667 88.9842 20.28 88.9842 18.24C88.9842 16.1433 89.6075 14.5567 90.8542 13.48C92.1575 12.3467 93.9992 11.78 96.3792 11.78C98.7592 11.78 100.573 12.3467 101.819 13.48C103.066 14.5567 103.689 16.1433 103.689 18.24C103.689 20.28 103.066 21.8667 101.819 23C100.573 24.0767 98.7592 24.615 96.3792 24.615Z" stroke="white" stroke-width="22" mask="url(#path-1-outside-1_45_9539)"/>
<path d="M132.723 90.235C129.663 90.235 126.717 89.98 123.883 89.47C121.107 88.96 118.642 88.195 116.488 87.175C115.185 86.6083 114.25 85.8717 113.683 84.965C113.173 84.0583 112.947 83.095 113.003 82.075C113.117 81.055 113.457 80.1483 114.023 79.355C114.647 78.5617 115.412 77.995 116.318 77.655C117.225 77.3717 118.188 77.4567 119.208 77.91C121.702 79.0433 123.997 79.78 126.093 80.12C128.247 80.46 130.088 80.63 131.618 80.63C135.245 80.63 137.965 79.8083 139.778 78.165C141.592 76.5217 142.498 74 142.498 70.6V64.14H143.263C142.413 66.7467 140.657 68.8717 137.993 70.515C135.33 72.1583 132.383 72.98 129.153 72.98C125.413 72.98 122.155 72.13 119.378 70.43C116.602 68.6733 114.448 66.2367 112.918 63.12C111.388 59.9467 110.623 56.2917 110.623 52.155C110.623 49.0383 111.048 46.205 111.898 43.655C112.805 41.105 114.052 38.9233 115.638 37.11C117.282 35.2967 119.237 33.9083 121.503 32.945C123.827 31.925 126.377 31.415 129.153 31.415C132.497 31.415 135.443 32.2367 137.993 33.88C140.6 35.4667 142.328 37.5633 143.178 40.17L142.328 42.89V38.045C142.328 35.9483 142.867 34.3617 143.943 33.285C145.077 32.1517 146.663 31.585 148.703 31.585C150.743 31.585 152.302 32.1517 153.378 33.285C154.455 34.3617 154.993 35.9483 154.993 38.045V69.155C154.993 76.125 153.067 81.3667 149.213 84.88C145.417 88.45 139.92 90.235 132.723 90.235ZM132.978 63.375C134.905 63.375 136.548 62.9217 137.908 62.015C139.325 61.1083 140.43 59.8333 141.223 58.19C142.017 56.49 142.413 54.4783 142.413 52.155C142.413 48.6417 141.535 45.9217 139.778 43.995C138.078 42.0117 135.812 41.02 132.978 41.02C131.052 41.02 129.38 41.4733 127.963 42.38C126.547 43.23 125.442 44.505 124.648 46.205C123.912 47.8483 123.543 49.8317 123.543 52.155C123.543 55.6683 124.393 58.4167 126.093 60.4C127.793 62.3833 130.088 63.375 132.978 63.375Z" stroke="white" stroke-width="22" mask="url(#path-1-outside-1_45_9539)"/>
<path d="M186.633 74.935C181.703 74.935 177.453 74.0567 173.883 72.3C170.37 70.4867 167.65 67.965 165.723 64.735C163.853 61.4483 162.918 57.595 162.918 53.175C162.918 48.8683 163.825 45.1 165.638 41.87C167.452 38.5833 169.973 36.0333 173.203 34.22C176.49 32.35 180.202 31.415 184.338 31.415C187.342 31.415 190.062 31.925 192.498 32.945C194.935 33.9083 197.032 35.325 198.788 37.195C200.545 39.0083 201.877 41.2467 202.783 43.91C203.69 46.5167 204.143 49.435 204.143 52.665C204.143 53.7417 203.803 54.5633 203.123 55.13C202.443 55.64 201.452 55.895 200.148 55.895H173.458V49.265H194.878L193.518 50.455C193.518 48.1317 193.178 46.205 192.498 44.675C191.818 43.0883 190.827 41.8983 189.523 41.105C188.277 40.3117 186.718 39.915 184.848 39.915C182.752 39.915 180.967 40.3967 179.493 41.36C178.02 42.3233 176.887 43.7117 176.093 45.525C175.3 47.3383 174.903 49.52 174.903 52.07V52.75C174.903 57.0567 175.895 60.23 177.878 62.27C179.918 64.31 182.922 65.33 186.888 65.33C188.248 65.33 189.807 65.16 191.563 64.82C193.32 64.48 194.963 63.9417 196.493 63.205C197.797 62.5817 198.958 62.3833 199.978 62.61C200.998 62.78 201.792 63.2333 202.358 63.97C202.925 64.7067 203.237 65.5567 203.293 66.52C203.407 67.4833 203.208 68.4467 202.698 69.41C202.188 70.3167 201.338 71.0817 200.148 71.705C198.222 72.7817 196.04 73.575 193.603 74.085C191.223 74.6517 188.9 74.935 186.633 74.935Z" stroke="white" stroke-width="22" mask="url(#path-1-outside-1_45_9539)"/>
<path d="M250.734 74.935C247.221 74.935 244.302 74.2833 241.979 72.98C239.656 71.6767 237.927 69.7217 236.794 67.115C235.717 64.4517 235.179 61.165 235.179 57.255V38.045C235.179 35.8917 235.717 34.2767 236.794 33.2C237.927 32.1233 239.514 31.585 241.554 31.585C243.594 31.585 245.181 32.1233 246.314 33.2C247.447 34.2767 248.014 35.8917 248.014 38.045V57.595C248.014 60.0883 248.524 61.9583 249.544 63.205C250.564 64.395 252.179 64.99 254.389 64.99C256.826 64.99 258.809 64.14 260.339 62.44C261.926 60.6833 262.719 58.3883 262.719 55.555V38.045C262.719 35.8917 263.257 34.2767 264.334 33.2C265.467 32.1233 267.054 31.585 269.094 31.585C271.191 31.585 272.777 32.1233 273.854 33.2C274.987 34.2767 275.554 35.8917 275.554 38.045V68.22C275.554 72.5833 273.486 74.765 269.349 74.765C267.309 74.765 265.751 74.1983 264.674 73.065C263.597 71.9317 263.059 70.3167 263.059 68.22V62.525L264.334 65.84C263.087 68.73 261.302 70.9683 258.979 72.555C256.656 74.1417 253.907 74.935 250.734 74.935Z" stroke="white" stroke-width="22" mask="url(#path-1-outside-1_45_9539)"/>
<path d="M291.946 74.765C289.849 74.765 288.234 74.1983 287.101 73.065C286.024 71.9317 285.486 70.3167 285.486 68.22V38.045C285.486 35.9483 286.024 34.3617 287.101 33.285C288.234 32.1517 289.792 31.585 291.776 31.585C293.816 31.585 295.374 32.1517 296.451 33.285C297.527 34.3617 298.066 35.9483 298.066 38.045V42.89L297.131 40.085C298.434 37.3083 300.361 35.1833 302.911 33.71C305.517 32.18 308.464 31.415 311.751 31.415C315.094 31.415 317.842 32.0667 319.996 33.37C322.149 34.6167 323.764 36.5433 324.841 39.15C325.917 41.7 326.456 44.9583 326.456 48.925V68.22C326.456 70.3167 325.889 71.9317 324.756 73.065C323.679 74.1983 322.092 74.765 319.996 74.765C317.956 74.765 316.369 74.1983 315.236 73.065C314.159 71.9317 313.621 70.3167 313.621 68.22V49.52C313.621 46.63 313.082 44.5617 312.006 43.315C310.986 42.0117 309.399 41.36 307.246 41.36C304.526 41.36 302.344 42.21 300.701 43.91C299.114 45.61 298.321 47.8767 298.321 50.71V68.22C298.321 72.5833 296.196 74.765 291.946 74.765Z" stroke="white" stroke-width="22" mask="url(#path-1-outside-1_45_9539)"/>
<path d="M380.093 74.935C375.559 74.935 371.593 74.0567 368.193 72.3C364.849 70.4867 362.271 67.9367 360.458 64.65C358.644 61.3633 357.738 57.4817 357.738 53.005C357.738 49.6617 358.248 46.6583 359.268 43.995C360.288 41.3317 361.761 39.065 363.688 37.195C365.671 35.325 368.051 33.9083 370.828 32.945C373.604 31.925 376.693 31.415 380.093 31.415C381.849 31.415 383.719 31.6417 385.703 32.095C387.686 32.4917 389.641 33.2 391.568 34.22C392.701 34.73 393.466 35.4667 393.863 36.43C394.316 37.3367 394.486 38.3 394.373 39.32C394.259 40.2833 393.891 41.1617 393.268 41.955C392.701 42.6917 391.964 43.2017 391.058 43.485C390.151 43.7117 389.131 43.5417 387.998 42.975C386.921 42.3517 385.788 41.8983 384.598 41.615C383.464 41.3317 382.388 41.19 381.368 41.19C379.668 41.19 378.166 41.4733 376.863 42.04C375.559 42.55 374.454 43.315 373.548 44.335C372.698 45.2983 372.018 46.5167 371.508 47.99C371.054 49.4633 370.828 51.1633 370.828 53.09C370.828 56.83 371.734 59.7767 373.548 61.93C375.418 64.0267 378.024 65.075 381.368 65.075C382.388 65.075 383.464 64.9617 384.598 64.735C385.731 64.4517 386.864 63.9983 387.998 63.375C389.131 62.8083 390.151 62.6667 391.058 62.95C391.964 63.2333 392.673 63.7717 393.183 64.565C393.749 65.3017 394.061 66.18 394.118 67.2C394.231 68.1633 394.061 69.1267 393.608 70.09C393.211 70.9967 392.474 71.705 391.398 72.215C389.471 73.1783 387.544 73.8583 385.618 74.255C383.691 74.7083 381.849 74.935 380.093 74.935Z" stroke="white" stroke-width="22" mask="url(#path-1-outside-1_45_9539)"/>
<path d="M415.753 74.935C412.24 74.935 409.322 74.2833 406.998 72.98C404.675 71.6767 402.947 69.7217 401.813 67.115C400.737 64.4517 400.198 61.165 400.198 57.255V38.045C400.198 35.8917 400.737 34.2767 401.813 33.2C402.947 32.1233 404.533 31.585 406.573 31.585C408.613 31.585 410.2 32.1233 411.333 33.2C412.467 34.2767 413.033 35.8917 413.033 38.045V57.595C413.033 60.0883 413.543 61.9583 414.563 63.205C415.583 64.395 417.198 64.99 419.408 64.99C421.845 64.99 423.828 64.14 425.358 62.44C426.945 60.6833 427.738 58.3883 427.738 55.555V38.045C427.738 35.8917 428.277 34.2767 429.353 33.2C430.487 32.1233 432.073 31.585 434.113 31.585C436.21 31.585 437.797 32.1233 438.873 33.2C440.007 34.2767 440.573 35.8917 440.573 38.045V68.22C440.573 72.5833 438.505 74.765 434.368 74.765C432.328 74.765 430.77 74.1983 429.693 73.065C428.617 71.9317 428.078 70.3167 428.078 68.22V62.525L429.353 65.84C428.107 68.73 426.322 70.9683 423.998 72.555C421.675 74.1417 418.927 74.935 415.753 74.935Z" stroke="white" stroke-width="22" mask="url(#path-1-outside-1_45_9539)"/>
<path d="M472.18 74.935C467.25 74.935 463 74.0567 459.43 72.3C455.917 70.4867 453.197 67.965 451.27 64.735C449.4 61.4483 448.465 57.595 448.465 53.175C448.465 48.8683 449.372 45.1 451.185 41.87C452.998 38.5833 455.52 36.0333 458.75 34.22C462.037 32.35 465.748 31.415 469.885 31.415C472.888 31.415 475.608 31.925 478.045 32.945C480.482 33.9083 482.578 35.325 484.335 37.195C486.092 39.0083 487.423 41.2467 488.33 43.91C489.237 46.5167 489.69 49.435 489.69 52.665C489.69 53.7417 489.35 54.5633 488.67 55.13C487.99 55.64 486.998 55.895 485.695 55.895H459.005V49.265H480.425L479.065 50.455C479.065 48.1317 478.725 46.205 478.045 44.675C477.365 43.0883 476.373 41.8983 475.07 41.105C473.823 40.3117 472.265 39.915 470.395 39.915C468.298 39.915 466.513 40.3967 465.04 41.36C463.567 42.3233 462.433 43.7117 461.64 45.525C460.847 47.3383 460.45 49.52 460.45 52.07V52.75C460.45 57.0567 461.442 60.23 463.425 62.27C465.465 64.31 468.468 65.33 472.435 65.33C473.795 65.33 475.353 65.16 477.11 64.82C478.867 64.48 480.51 63.9417 482.04 63.205C483.343 62.5817 484.505 62.3833 485.525 62.61C486.545 62.78 487.338 63.2333 487.905 63.97C488.472 64.7067 488.783 65.5567 488.84 66.52C488.953 67.4833 488.755 68.4467 488.245 69.41C487.735 70.3167 486.885 71.0817 485.695 71.705C483.768 72.7817 481.587 73.575 479.15 74.085C476.77 74.6517 474.447 74.935 472.18 74.935Z" stroke="white" stroke-width="22" mask="url(#path-1-outside-1_45_9539)"/>
<path d="M503.616 74.765C501.519 74.765 499.904 74.1983 498.771 73.065C497.694 71.9317 497.155 70.3167 497.155 68.22V38.045C497.155 35.9483 497.694 34.3617 498.771 33.285C499.904 32.1517 501.462 31.585 503.445 31.585C505.485 31.585 507.044 32.1517 508.12 33.285C509.197 34.3617 509.736 35.9483 509.736 38.045V42.89L508.801 40.085C510.104 37.3083 512.031 35.1833 514.581 33.71C517.187 32.18 520.134 31.415 523.42 31.415C526.764 31.415 529.512 32.0667 531.666 33.37C533.819 34.6167 535.434 36.5433 536.51 39.15C537.587 41.7 538.125 44.9583 538.125 48.925V68.22C538.125 70.3167 537.559 71.9317 536.425 73.065C535.349 74.1983 533.762 74.765 531.666 74.765C529.626 74.765 528.039 74.1983 526.906 73.065C525.829 71.9317 525.291 70.3167 525.291 68.22V49.52C525.291 46.63 524.752 44.5617 523.675 43.315C522.655 42.0117 521.069 41.36 518.915 41.36C516.195 41.36 514.014 42.21 512.371 43.91C510.784 45.61 509.991 47.8767 509.991 50.71V68.22C509.991 72.5833 507.866 74.765 503.616 74.765Z" stroke="white" stroke-width="22" mask="url(#path-1-outside-1_45_9539)"/>
<path d="M568.192 74.935C564.282 74.935 560.996 74.2833 558.332 72.98C555.726 71.6767 553.771 69.7783 552.467 67.285C551.221 64.7917 550.597 61.6467 550.597 57.85V41.87H547.027C545.441 41.87 544.194 41.445 543.287 40.595C542.437 39.745 542.012 38.5833 542.012 37.11C542.012 35.5233 542.437 34.3333 543.287 33.54C544.194 32.69 545.441 32.265 547.027 32.265H550.597V25.805C550.597 23.6517 551.164 22.0367 552.297 20.96C553.431 19.8267 555.017 19.26 557.057 19.26C559.154 19.26 560.741 19.8267 561.817 20.96C562.894 22.0367 563.432 23.6517 563.432 25.805V32.265H571.507C573.094 32.265 574.312 32.69 575.162 33.54C576.012 34.3333 576.437 35.5233 576.437 37.11C576.437 38.5833 576.012 39.745 575.162 40.595C574.312 41.445 573.094 41.87 571.507 41.87H563.432V57.34C563.432 59.72 563.971 61.505 565.047 62.695C566.181 63.885 567.966 64.48 570.402 64.48C571.252 64.48 572.046 64.395 572.782 64.225C573.519 64.055 574.199 63.9417 574.822 63.885C575.616 63.8283 576.267 64.0833 576.777 64.65C577.287 65.16 577.542 66.3217 577.542 68.135C577.542 69.495 577.316 70.685 576.862 71.705C576.409 72.725 575.616 73.4617 574.482 73.915C573.746 74.1983 572.726 74.425 571.422 74.595C570.176 74.8217 569.099 74.935 568.192 74.935Z" stroke="white" stroke-width="22" mask="url(#path-1-outside-1_45_9539)"/>
<path d="M601.717 74.935C597.241 74.935 593.331 74.0567 589.987 72.3C586.701 70.5433 584.151 68.0217 582.337 64.735C580.524 61.4483 579.617 57.5667 579.617 53.09C579.617 49.7467 580.127 46.7433 581.147 44.08C582.167 41.4167 583.641 39.15 585.567 37.28C587.551 35.3533 589.902 33.9083 592.622 32.945C595.342 31.925 598.374 31.415 601.717 31.415C606.194 31.415 610.076 32.2933 613.362 34.05C616.706 35.8067 619.284 38.3 621.097 41.53C622.967 44.76 623.902 48.6133 623.902 53.09C623.902 56.49 623.364 59.5217 622.287 62.185C621.267 64.8483 619.794 67.1433 617.867 69.07C615.941 70.9967 613.589 72.47 610.812 73.49C608.092 74.4533 605.061 74.935 601.717 74.935ZM601.717 65.33C603.587 65.33 605.202 64.8767 606.562 63.97C607.922 63.0633 608.999 61.7317 609.792 59.975C610.586 58.1617 610.982 55.8667 610.982 53.09C610.982 48.9533 610.132 45.9217 608.432 43.995C606.732 42.0117 604.494 41.02 601.717 41.02C599.904 41.02 598.289 41.445 596.872 42.295C595.512 43.145 594.436 44.4767 593.642 46.29C592.906 48.0467 592.537 50.3133 592.537 53.09C592.537 57.2267 593.387 60.315 595.087 62.355C596.787 64.3383 598.997 65.33 601.717 65.33Z" stroke="white" stroke-width="22" mask="url(#path-1-outside-1_45_9539)"/>
</svg>
